<svg id="Layer_1" data-name="Layer 1" xmlns="http://www.w3.org/2000/svg" viewBox="0 0 766.48 85.06"><defs><style>.cls-1{fill:#8a9d37;}.cls-2{fill:#748127;}.cls-3{fill:#8a9c36;}.cls-4{fill:#748222;}.cls-5{fill:#95ad4d;}.cls-6{fill:#9cad21;}</style></defs><title>bushes</title><path class="cls-1" d="M350,314.32c1.93-3.13,5-3.26,8.31-2.82a1.47,1.47,0,0,1,.75.3c1.46,1.29,2.81.78,4.36,0a15,15,0,0,1,8.77-1.57A12.13,12.13,0,0,1,379,314c1.12,1.16,2.11,2.45,3.12,3.64,1.85-.24,3.83-0.63,5.83-0.74a7.63,7.63,0,0,1,6.7,2.57c1.13,1.32,2.9,2.2,3.28,4a17,17,0,0,1,.34,5.2,1.51,1.51,0,0,0,.89,1.84c2.23,1,3,2.87,3.55,5.11a9.13,9.13,0,0,1-.42,5.58l5.5,3.27a15.9,15.9,0,0,1,2.33-2.76,19.34,19.34,0,0,1,7.71-4,9,9,0,0,1,7.33,1.55c0.41,0.29.84,0.55,1.34,0.87a5,5,0,0,0,.46-0.72,5,5,0,0,1,2.34-2.79,12.63,12.63,0,0,1,10.4-.86,0.91,0.91,0,0,0,1.21-.46,55.37,55.37,0,0,1,4.67-5.23,11.43,11.43,0,0,1,7.78-3.07c3.1,0,5,1.7,6.34,4.24a1.85,1.85,0,0,0,2.39,1.23,11.15,11.15,0,0,1,10.23,2.76c1.2,1.14,1.86,2.92,2.57,4.49a1,1,0,0,0,1.42.7,50.88,50.88,0,0,1,5.29-1,13.32,13.32,0,0,1,10.25,3.44,25.19,25.19,0,0,1,2.72,3.24c2-.37,4-0.91,6.1-1.1,3.15-.3,6.12.25,8.23,2.93a24.37,24.37,0,0,1,1.53,2.52c1.1-1.86,3-1.48,4.51-1.3a5.45,5.45,0,0,1,3.32,1.69c1.82,2.23,3.3,4.71,2.83,7.85-0.33,2.19-.42,4.42-0.91,6.57s-2.1,3.51-4.2,4.38a26.77,26.77,0,0,1-6.74,1.79c-3,.4-6,1.2-9,1.35-4.67.22-9.36,0.1-14,0-3.43-.08-6.86-0.29-10.28-0.56-4.44-.34-8.87-0.8-13.31-1.17-3.39-.29-6.8-0.4-10.17-0.81-8.52-1-17-2.16-25.45-3.89-4.81-1-9.65-1.88-14.48-2.78-3.94-.74-7.93-1.28-11.84-2.16-5.28-1.19-10.55-2.47-15.75-4-6.13-1.78-12.21-3.73-18.24-5.8-4.77-1.64-9.45-3.57-14.17-5.38l-7.06-2.74c-3.63-1.42-7.24-2.9-10.89-4.24s-7.24-2.51-10.86-3.74c-3.88-1.32-7.82-2.51-10.81-5.58-0.77-.79-1.31-1.45-0.61-2.69a25.43,25.43,0,0,1,9.18-9.33c0.6-.37,1.23-0.68,1.82-1.07,3.87-2.52,7.94-2.16,12-.74,1.86,0.65,1.75.67,3.12-.69,2.25-2.23,4.86-3.78,8.18-2.94A16.61,16.61,0,0,1,350,314.32Z" transform="translate(-49.35 -287.9)"/><path class="cls-2" d="M771,300c3.21,0.14,5,2,6.12,4.67a0.94,0.94,0,0,0,1.44.62c3.2-1,6.57.25,7.59,3.92,0.54,2,1,3.44,3.17,4.2a9.89,9.89,0,0,1,3.44,2.81,7.86,7.86,0,0,1,1.78,6.06,24.45,24.45,0,0,1-.49,2.62,7.3,7.3,0,0,1-2.39,3.79c-0.64.67-1.44,1.2-2.13,1.83a3.64,3.64,0,0,1-.49.75,4,4,0,0,1-1.7.16c-2.86-.51-5.71-1.09-8.57-1.66a5.92,5.92,0,0,1-1.75-.45,13.2,13.2,0,0,0-5.26-1.24,3.89,3.89,0,0,1-1.25-.22c-2-1-4.3-.8-6.44-1.26-1.77-.38-1.63-0.53-1.74-2.3-0.31-4.6.24-9.25-.81-13.81-0.45-2-1-3.92-1.44-5.89a1.06,1.06,0,0,1,.85-1.55c1.78-.55,3.44-1.48,5.22-2A48,48,0,0,1,771,300Z" transform="translate(-49.35 -287.9)"/><path class="cls-2" d="M647.74,332.09a15.78,15.78,0,0,1-1.89,6.64,4.56,4.56,0,0,1-2.69,1.56,16,16,0,0,0-7.37,4.05c-1.55,1.51-2.64,1.3-4.09.48a8.8,8.8,0,0,0-4-.81c-1.59-.1-3.18-0.38-4.77-0.49a4.07,4.07,0,0,0-1.61.39c-0.58.22-2.42-.34-2.66-0.92-0.66-1.61-1.21-3.26-1.92-4.84-1.22-2.71-.42-5.21.53-7.76,0.65-1.75,2.14-2.22,3.67-2.52a1,1,0,0,0,.94-1.2,12.43,12.43,0,0,1,.11-2.45,5.93,5.93,0,0,1,2.53-3.43c0.59-.48,1.23-0.9,1.77-1.43a3.33,3.33,0,0,1,4.27-.69,1.33,1.33,0,0,0,1.61-.16c2.13-1.41,4.37-2.27,7.06-1.46a10.17,10.17,0,0,1,4.69,2.33,6.59,6.59,0,0,1,.88,1.18A19.66,19.66,0,0,1,647.74,332.09Z" transform="translate(-49.35 -287.9)"/><path class="cls-3" d="M609.06,335.87c0.74-1.93,2.8-2.86,4.46-4.21,0.89-.73,2-0.52,3-0.47a1.87,1.87,0,0,0,2.11-1.17,13.25,13.25,0,0,1,1.73-3.17c1.78-2.13,3.76-4.07,6.91-3.59a1.81,1.81,0,0,0,1.81-1A6,6,0,0,1,635.4,320a8.35,8.35,0,0,1,5,3.82,7.12,7.12,0,0,0,.52.72,40,40,0,0,1,5.36-2.87c3.14-1.13,6.41-1.74,9.52.27a1.07,1.07,0,0,0,1.42-.1c1.8-1.31,3.64-2.56,5.51-3.77a15.41,15.41,0,0,1,2.31-1.1c1.92-.83,3.92-0.48,5.9-0.35a4.53,4.53,0,0,1,.49.11l3.68,0.66,0,0.31a0.85,0.85,0,0,0,.26-0.32c0.2-2,1.84-3.05,3.22-4a18.7,18.7,0,0,1,10.7-3.68,10.13,10.13,0,0,1,3.84,1.14,28.16,28.16,0,0,1,3.15,1.83c0.59-.65,1.1-1.28,1.68-1.85,1.51-1.49,3.53-2.07,5.39-2.95a18.25,18.25,0,0,1,2-.74c2.25-.76,4.18,0,6,1.25,1,0.64,2,1.31,2.88,2,0.46,0.36.74,0.43,1.15,0a13.59,13.59,0,0,1,7.93-4.28A8.52,8.52,0,0,1,731,307.8a33.58,33.58,0,0,1,3.13,3.2,1.14,1.14,0,0,0,1.6.21,15.2,15.2,0,0,1,8.65-1.62,6.93,6.93,0,0,1,2.56.89,33.6,33.6,0,0,1,3.07,2.14c1.14,0.82,1.45,2.12,1.87,3.35a6,6,0,0,1,.15.77c1.53-.72,3-1.44,4.45-2.06a5.53,5.53,0,0,1,1.68-.27,13.87,13.87,0,0,1,6.19.58,8.47,8.47,0,0,1,5.34,5c0.46,1.27.85,2.56,1.22,3.85a0.8,0.8,0,0,0,1.32.6,5.08,5.08,0,0,1,5.35.44c1.24,0.81,2.46,1.64,4,2.65l0.47-.67a10.08,10.08,0,0,1,7-4.25,9.44,9.44,0,0,1,7,2c2.54,1.94,2.82,1.92,3.23,4.9,2.67-.07,5.31.24,7.4,2s2.74,4.37,2.22,7.21a8.58,8.58,0,0,0,.85.25,7.81,7.81,0,0,1,6,8.28,1.62,1.62,0,0,1-.32.89,18,18,0,0,1-2.65,2.45c-1.65,1.1-3.51,1.91-5.14,3s-3.15.66-4.7-.32c-2-1.26-4.09-2.39-6.13-3.6-0.83-.49-1.62-1-2.42-1.56a7.43,7.43,0,0,0-.59-0.46c-2.36-1.22-4.7-2.49-7.1-3.64-2.18-1-4.39-2.06-6.65-2.9a65.07,65.07,0,0,0-7-2.18c-4.07-1-8.16-1.9-12.26-2.77-3.43-.73-6.88-1.43-10.34-2-2-.32-4.14-0.28-6.2-0.46-2.24-.2-4.46-0.49-6.7-0.71-0.77-.08-1.56,0-2.33-0.07-1.87-.1-3.74-0.25-5.61-0.3-4.24-.12-8.48-0.27-12.72-0.26-4.39,0-8.78.15-13.17,0.35-2.87.13-5.74,0.46-8.61,0.72s-5.9.57-8.85,0.83c-0.69.06-1.41,0-2.1,0-2.51.31-5,.71-7.53,1q-4.65.54-9.32,1c-4.52.41-9,.72-13.56,1.14-3.2.3-6.4,0.69-9.6,1.05l-13.52,1.52c-3.68.42-7.36,0.8-11,1.31-2.44.34-4.86,0.87-7.29,1.3-1.92.34-3.86,0.6-5.76,1-2.08.43-4.12,1-6.2,1.45-2.42.49-4.87,0.84-7.3,1.28-0.41.07-.79,0.26-1.2,0.34-1.95.4-3.89,0.83-5.84,1.17-3.46.59-6.93,1.13-10.39,1.68l-15,2.39-0.52.1c-1.52.33-3,.64-4.55,1-2.17.52-4.32,1.09-6.49,1.61a5,5,0,0,1-4.93-1.61,4.05,4.05,0,0,0-.44-0.47c-1.63-1.19-1.37-2.8-1-4.44,0.63-2.83,2.75-4.4,5-5.78,1.74-1.07,3.69-.51,5.53-0.22,1,0.16,1.24,0,1.5-1a11.13,11.13,0,0,1,1.72-4.05,4.62,4.62,0,0,1,4.36-2.09,1.07,1.07,0,0,0,1.13-.6c1.29-1.59,2.75-3.12,4.94-3.3s5.6,0.6,6.73,3.23c0.35,0.82.75,1.15,1.68,0.54a6.43,6.43,0,0,1,6.17-.82,15.66,15.66,0,0,1,2.53,1.59,10,10,0,0,1,6-2.45c2.07-.12,3.72,1,5.41,2a1.23,1.23,0,0,0,1.07.09c1.65-1.47,3.7-1.24,5.65-1.4a5.49,5.49,0,0,1,2.12.07C605.84,334.47,607.36,335.17,609.06,335.87Z" transform="translate(-49.35 -287.9)"/><path class="cls-4" d="M61.16,331.86c-0.89-2.11-.92-4.14.89-5.68-1.21-1-2.43-2-3.57-3a3.7,3.7,0,0,1-.86-3.88A6,6,0,0,1,60,315.81a2.47,2.47,0,0,0,.63-2.06,4.43,4.43,0,0,1,2.2-4.56c3.78-2.47,7.8-2.28,10.49,2.48,0.17,0.3.37,0.6,0.61,1a6.71,6.71,0,0,1,6.89-.28c0.86-2.13,1.75-4.16,4.45-4.41-0.14-.63-0.27-1.21-0.4-1.78-0.54-2.31-.07-3.35,2-4.55a3.45,3.45,0,0,0,.54-0.35c1.93-1.63,3.88-1,5.87-.06,1.41-2.77,3.85-4,6.78-4.26,3.15-.31,5.48.87,6.41,4.12a8.71,8.71,0,0,1,7-1c2.46,0.71,3.59,2.86,4.59,4.85,1.45-.57,2.84-1.08,4.2-1.65a7,7,0,0,1,7.26.84,8.2,8.2,0,0,1,1.86,2.42,0.86,0.86,0,0,0,1,.63c2.75-.64,4.85.68,6.5,2.57,0.79,0.91.93,2.39,1.35,3.61a5.82,5.82,0,0,1,.14.66,29.56,29.56,0,0,1,3.05-.45,10,10,0,0,1,2.5.25,0.94,0.94,0,0,0,1.24-.6,13.91,13.91,0,0,1,1.61-2.64c2.07-2.5,4.74-3.08,7.89-2.15a9.82,9.82,0,0,1,3.15-5,4.34,4.34,0,0,1,4.57-1,1.11,1.11,0,0,0,1.3-.26c1.53-1.33,3.09-2.68,5.16-3.09a8.21,8.21,0,0,1,7.57,2.33,9.27,9.27,0,0,1,1.2,1.84,10.08,10.08,0,0,1,6.57.72c3.58,1.42,5,4.37,6,7.68a11.83,11.83,0,0,1,.38,2.36,0.82,0.82,0,0,1-.31.69c-2.84,1-5.7,1.91-8.56,2.86-1.58.52-3.15,1.07-4.73,1.56-2.82.88-5.65,1.7-8.46,2.58-1.69.52-3.34,1.14-5,1.64s-3.29.87-4.94,1.3-3.08.81-4.63,1.18c-1.33.32-2.67,0.61-4,.86q-6.92,1.3-13.85,2.55c-1.76.32-3.54,0.54-5.31,0.87-3.34.63-6.66,1.37-10,1.92-2.52.41-5.1,0.51-7.63,0.91-2.8.44-5.55,1.14-8.35,1.58-4.88.78-9.79,1.39-14.67,2.17-3.28.52-6.53,1.26-9.81,1.81-2.51.42-5,.65-7.55,1.09-2.73.48-5.42,1.14-8.14,1.64-3,.57-6.1,1-9.15,1.57a6.64,6.64,0,0,0-1.35.32c-1,.39-1.33-0.15-1.49-0.95-0.6-3.13,1.56-7.88,4.32-9.46A17.77,17.77,0,0,1,61.16,331.86Z" transform="translate(-49.35 -287.9)"/><path class="cls-5" d="M151.55,294.57c0.24-3,2.18-4.84,4.56-6a10.72,10.72,0,0,1,5-.62c1.64,0.06,2.39,1.55,3.07,2.85a1,1,0,0,0,1.16.59,21.78,21.78,0,0,1,4.23.2A7,7,0,0,1,175,296c5.8-1.67,11.13-1.48,15.28,3.77,1.67-1.6,3.76-2,5.78-2.51a8,8,0,0,1,6.53,1.15c0.87,0.56,1.48.85,2.46,0.05a17.74,17.74,0,0,1,4.38-2.78c3.76-1.52,7.6-2.07,11.24.47a5.07,5.07,0,0,1,1.73,5.63c5,1,5,1.38,6.24,5.92,2.1,0,4.15-.11,6.17,0a13,13,0,0,1,3.81.95c1.63,0.66,2.31,2.26,3,3.74a5.64,5.64,0,0,1-.47,5.56,5.06,5.06,0,0,1-4.66,2.12,36.08,36.08,0,0,1-4.4-.67c-0.23.49-.57,1.21-0.9,1.94a6.51,6.51,0,0,1-5.09,3.72c-2.63.55-4.85-.45-7-1.64a26.14,26.14,0,0,1-3.16-2.52,2.56,2.56,0,0,0-1-.45c-1.17-.28-2.36-0.51-3.53-0.79a8.16,8.16,0,0,1-3.68-1.88,8.09,8.09,0,0,0-1.95-1c-1-.47-1.95-1-3-1.36-1.72-.64-3.48-1.17-5.22-1.76a6.82,6.82,0,0,1-1.17-.52,14.39,14.39,0,0,0-6.23-1.62c-2.09-.15-4.18-0.19-6.27-0.21a18.39,18.39,0,0,0-2,.29c-0.67.07-1.34,0.07-2,.1a4.42,4.42,0,0,0-1.45.05,36.07,36.07,0,0,0-4.29,2,3.27,3.27,0,0,0-1.09,1.61c-0.42,1.05-.59,2.22-1.08,3.23a5.11,5.11,0,0,1-1.65,2c-2.19,1.43-4.44,2.78-6.75,4a3.2,3.2,0,0,1-2.43.14,3.42,3.42,0,0,0-2.85.15,19.63,19.63,0,0,1-3,1A4.24,4.24,0,0,1,151,324.2a5,5,0,0,0-.94-0.86,2.05,2.05,0,0,0-3.14.49,8.58,8.58,0,0,1-2.26,2.37,10.69,10.69,0,0,1-4.42,1.26,3.53,3.53,0,0,1-3.08-2.36,8.38,8.38,0,0,1-.56-2.86,2.48,2.48,0,0,0-.56-1.84c-1.35-1.46-1.59-4.44-.57-5.85a10.29,10.29,0,0,1,5-3.65,6.29,6.29,0,0,1,2.38-6.64c-1.95-2.93-.66-5.31,1.15-7.68A6.78,6.78,0,0,1,151.55,294.57Z" transform="translate(-49.35 -287.9)"/><path class="cls-6" d="M66.07,337.17c0.24-3,2.18-4.84,4.56-6a10.72,10.72,0,0,1,5-.62c1.64,0.06,2.39,1.55,3.07,2.85a1,1,0,0,0,1.16.59,21.78,21.78,0,0,1,4.23.2,7,7,0,0,1,5.46,4.39c5.8-1.67,11.13-1.48,15.28,3.77,1.67-1.6,3.76-2,5.78-2.51a8,8,0,0,1,6.53,1.15c0.87,0.56,1.48.85,2.46,0.05a17.74,17.74,0,0,1,4.38-2.78c3.76-1.52,7.6-2.07,11.24.47a5.07,5.07,0,0,1,1.73,5.63c5,1,5,1.38,6.24,5.92,2.1,0,4.15-.11,6.17,0a13,13,0,0,1,3.81.95c1.63,0.66,2.31,2.26,3,3.74a5.64,5.64,0,0,1-.47,5.56,5.06,5.06,0,0,1-4.66,2.12,36.08,36.08,0,0,1-4.4-.67c-0.23.49-.57,1.21-0.9,1.94a6.51,6.51,0,0,1-5.09,3.72c-2.63.55-4.85-.45-7-1.64a26.14,26.14,0,0,1-3.16-2.52,2.56,2.56,0,0,0-1-.45c-1.17-.28-2.36-0.51-3.53-0.79a8.16,8.16,0,0,1-3.68-1.88,8.09,8.09,0,0,0-1.95-1c-1-.47-1.95-1-3-1.36-1.72-.64-3.48-1.17-5.22-1.76a6.82,6.82,0,0,1-1.17-.52,14.39,14.39,0,0,0-6.23-1.62c-2.09-.15-4.18-0.19-6.27-0.21a18.39,18.39,0,0,0-2,.29c-0.67.07-1.34,0.07-2,.1a4.42,4.42,0,0,0-1.45.05,36.07,36.07,0,0,0-4.29,2A3.27,3.27,0,0,0,87.64,358c-0.42,1.05-.59,2.22-1.08,3.23a5.11,5.11,0,0,1-1.65,2c-2.19,1.43-4.44,2.78-6.75,4a3.2,3.2,0,0,1-2.43.14,3.42,3.42,0,0,0-2.85.15,19.63,19.63,0,0,1-3,1,4.24,4.24,0,0,1-4.34-1.69,5,5,0,0,0-.94-0.86,2.05,2.05,0,0,0-3.14.49,8.58,8.58,0,0,1-2.26,2.37,10.69,10.69,0,0,1-4.42,1.26,3.53,3.53,0,0,1-3.08-2.36,8.38,8.38,0,0,1-.56-2.86,2.48,2.48,0,0,0-.56-1.84c-1.35-1.46-1.59-4.44-.57-5.85a10.29,10.29,0,0,1,5-3.65,6.29,6.29,0,0,1,2.38-6.64c-1.95-2.93-.66-5.31,1.15-7.68A6.78,6.78,0,0,1,66.07,337.17Z" transform="translate(-49.35 -287.9)"/><path class="cls-3" d="M248.56,310.11a9.7,9.7,0,0,1,8.79.38,6.51,6.51,0,0,1,3.49,5.42,1.6,1.6,0,0,1-1.59,1.85,47.9,47.9,0,0,1-5.77.12,84.33,84.33,0,0,0-11.11.47c-2.68.18-5.38,0.15-8.07,0.23-2.13.06-4.26,0.18-6.39,0.18s-4-.14-6.07-0.22c-0.1,0-.19-0.11-0.29-0.12-1.87-.08-2-0.24-1.75-2.13,0.31-2.4,1.9-3.63,3.93-4.62a6.23,6.23,0,0,1,4.43-.63,1.54,1.54,0,0,0,.85-0.47c1.32-1,2.52-2.28,4.29-2.35a5.94,5.94,0,0,1,4.35,1,1.44,1.44,0,0,0,2-.06c1.92-1.52,4.14-2.29,6.52-1A16.18,16.18,0,0,1,248.56,310.11Z" transform="translate(-49.35 -287.9)"/></svg>