<svg id="Layer_1" data-name="Layer 1" xmlns="http://www.w3.org/2000/svg" viewBox="0 0 677.64 232.55"><defs><style>.cls-1{fill:#656e24;}.cls-2{fill:#636247;}.cls-3,.cls-4{fill:none;stroke:#662482;}.cls-15,.cls-3,.cls-4{stroke-miterlimit:10;}.cls-3{stroke-width:0.48px;}.cls-5{fill:#b23e18;}.cls-6{fill:#fd0;}.cls-7{fill:#ff6902;}.cls-8{fill:#ffda00;}.cls-9{fill:#772d15;}.cls-10{fill:#fc8006;}.cls-11{fill:#1d1d1b;}.cls-12{fill:#3f3f2c;}.cls-13{fill:#3a3a2b;}.cls-14{fill:#656d1b;}.cls-15,.cls-16{fill:#757461;}.cls-15{stroke:#636247;}</style></defs><title>campo</title><path class="cls-1" d="M592.86,332.83c2.18-5,5.49-6.68,9.88-4.92,2.77-2.63,6.78-1,8.27,1.25,0.6,0.92,1.25,1.8,1.82,2.74A2,2,0,0,1,613,333a25.22,25.22,0,0,0-.26,2.74,1.88,1.88,0,0,1-1.45,2.07c-2.59.85-5.2,1.64-7.8,2.45a28.72,28.72,0,0,1-9,1.22c-2.93,0-5.85-.41-8.78-0.63a4.5,4.5,0,0,1-1.4-.07,5.43,5.43,0,0,1-.12-1.88,4.85,4.85,0,0,1,2-3.28,27.42,27.42,0,0,1,2.88-2.19A5.14,5.14,0,0,1,592.86,332.83Z" transform="translate(-87.09 -189.73)"/><path class="cls-2" d="M241.28,365c-22.31-.66-44.71,8.11-63.9,25-6.21,4.46-17.41,16.1-12.06,17.66s54.52-7.84,53.84.2c32.62-6.65,64.47-14.63,97.09-21.27,2.85-.58,6.25-2.5,7-6.62,1.19-6.55-4.43-7.7-9-7.56l-67.57,2.19,4.6-11.37-14.58-2.84" transform="translate(-87.09 -189.73)"/><path class="cls-3" d="M314.89,317.94" transform="translate(-87.09 -189.73)"/><path class="cls-3" d="M291.4,263" transform="translate(-87.09 -189.73)"/><path class="cls-4" d="M671,182.36" transform="translate(-87.09 -189.73)"/><path class="cls-5" d="M257.11,351.63c1.89-3,8.86-14,13.12-20.69l14.63-21.7,1.51-1-1.18,42.38-3,41.73-0.53,2.33-5.21-3.2-5.38-3.36-6.22-1.68S258.25,356.5,257.11,351.63Z" transform="translate(-87.09 -189.73)"/><path class="cls-6" d="M286.74,214.72c-0.06-1.9-.28-10.15-0.24-12a4.13,4.13,0,0,1,.75-2.56,2.51,2.51,0,0,1,1.08-.79c2.22-1.2,4.73-1.41,7.12-2a36,36,0,0,1,11.32-1.1,21.75,21.75,0,0,1,3.46.5,3.17,3.17,0,0,1,2.64,3.41c0,0.91.28,7,.43,9.17a24.73,24.73,0,0,1-.09,3.2,0.7,0.7,0,0,1-.86.71,6.94,6.94,0,0,1-1.18-.23,11.69,11.69,0,0,0-5.62-.18c-2.08.36-4.2,0.54-6.28,0.9-1.45.25-2.85,0.7-4.29,1-1.24.26-2.51,0.37-3.74,0.68a28.37,28.37,0,0,0-3,.86S286.8,216.62,286.74,214.72Z" transform="translate(-87.09 -189.73)"/><path class="cls-7" d="M323,364.76c0.11,0.46.18,0.93,0.33,1.37,0.84,2.54,1.73,5.07,2.52,7.62a29,29,0,0,1,.78,3.47c0.25,1.4-.35,2.69-0.61,4a0.73,0.73,0,0,1-.38.34,53.85,53.85,0,0,1-10.42,4.48c-0.55.16-1.06,0.48-1.6,0.69a1.14,1.14,0,0,1-.61,0,0.67,0.67,0,0,1-.56-1c1-5.64,1.87-11.29,2.91-16.92,0.65-3.52,1.53-7,2.29-10.51,0.16-.75.29-1.5,0.45-2.25a1.65,1.65,0,0,1,.93-1.33,0.47,0.47,0,0,1,.73.34c0.4,1.47.81,2.94,1.17,4.42a8.24,8.24,0,0,0,1.36,3.2,0.43,0.43,0,0,0,.35.15,15.21,15.21,0,0,0-.3-2.11c-0.49-1.72-1-3.43-1.6-5.13a1.68,1.68,0,0,1,1.38-2.27c1.91-.28,3.8-0.69,5.72-0.89a30.61,30.61,0,0,1,3.73,0,0.56,0.56,0,0,1,.62.65,2.77,2.77,0,0,1-.11,1.07,22.27,22.27,0,0,0-1.33,5.31c-0.91,4.19-1.73,8.41-2.58,12.61-0.07.34-.05,0.73-0.6,0.74a0.85,0.85,0,0,1-.93-0.67c-0.51-1.51-1-3-1.6-4.49a29.74,29.74,0,0,0-1.8-3.1Z" transform="translate(-87.09 -189.73)"/><path class="cls-8" d="M329.53,221.9c0.8-.36,1.63-0.68,2.4-1.09a22.75,22.75,0,0,0,2.74-1.64,4.36,4.36,0,0,0,1.65-4.08c-0.15-2.37-.35-4.74-0.55-7.11a2.88,2.88,0,0,1,2.64-3.4,91.68,91.68,0,0,1,20.11-1.4,21.07,21.07,0,0,1,4,.78,4.75,4.75,0,0,1,.83.39,11.77,11.77,0,0,1-1.34.88c-1.15.54-2.3,1.07-3.48,1.53a46.61,46.61,0,0,0-7.42,4c-0.93.57-.88,1.2,0.13,1.68,1.55,0.73,3.14,1.37,4.7,2.07a25.86,25.86,0,0,1,6.14,4,2.18,2.18,0,0,1,.56.7,0.8,0.8,0,0,1-.79,1.19,110.81,110.81,0,0,0-16.6.72c-3.58.45-7.13,1.09-10.7,1.62-1.09.16-2.19,0.25-3.29,0.31A1.58,1.58,0,0,1,329.53,221.9Z" transform="translate(-87.09 -189.73)"/><path class="cls-7" d="M254.92,358.82a2.44,2.44,0,0,0-1,1.61c-0.18.92-.28,1.86-0.47,2.78s-0.49,1.88-.74,2.82c-0.44,1.71-.93,3.41-1.31,5.13a18.34,18.34,0,0,1-1.59,4.79c-0.06.1-.11,0.21-0.17,0.31a0.61,0.61,0,0,1-.19.08c-0.06-.16-0.12-0.31-0.17-0.47-1.82-6.24-3.27-12.57-4.57-18.93-0.27-1.32-.56-2.64-0.71-4a1.18,1.18,0,0,1,1.47-1.47c1.36,0.11,2.7.38,4.05,0.57s2.95,0.44,4.43.59a0.93,0.93,0,0,1,1,.86c0.05,0.36.06,0.72,0.1,1.08a0.58,0.58,0,0,0,.73.64,0.78,0.78,0,0,1,.92.68c0.7,2.27,1.48,4.51,2.09,6.8,1.07,4,2,8.12,3,12.17,0.58,2.24,1.27,4.45,1.87,6.68a13.1,13.1,0,0,1,.54,4.36c-1.2-.26-2.37-0.46-3.5-0.78q-4.18-1.17-8.33-2.44a2,2,0,0,1-1.7-1.94c0.08-.63.24-1.25,0.37-1.87,0.64-3.17,1.26-6.35,1.91-9.52,0.52-2.49,1.11-5,1.61-7.46C254.73,361,254.78,360,254.92,358.82Z" transform="translate(-87.09 -189.73)"/><path class="cls-8" d="M328.89,200.29c1,0.11,2.17.2,3.31,0.37a2.45,2.45,0,0,1,2.23,2.34c0.16,1.46.25,2.93,0.33,4.4q0.22,3.81.39,7.61c0.09,2-.32,2.31-2.27,2.11a19.89,19.89,0,0,0-7.11.77,91.29,91.29,0,0,1-13.11,2.53,6.84,6.84,0,0,1-4.08-.46,1.1,1.1,0,0,1,.11-2.18c1.1-.39,2.21-0.76,3.29-1.18a3.3,3.3,0,0,0,2.29-3.42c-0.08-2.52-.26-5-0.4-7.55,0-.16,0-0.32,0-0.48-0.16-1.94.49-2.68,2.39-3.08a97.83,97.83,0,0,1,10.62-1.63C327.48,200.38,328.13,200.35,328.89,200.29Z" transform="translate(-87.09 -189.73)"/><path class="cls-7" d="M243.22,354.73c0.38,1.83.71,3.59,1.12,5.33,0.6,2.53,1.3,5,1.9,7.56,0.43,1.78.73,3.59,1.18,5.37,0.52,2,1.15,4.07,1.73,6.1a2.87,2.87,0,0,1,.13.77,0.9,0.9,0,0,1-1.37.87c-3.84-2.09-7.79-4-11.29-6.64a1.13,1.13,0,0,1-.41-0.61,23,23,0,0,1-.56-3.46,9.93,9.93,0,0,1,.39-2.85,28.65,28.65,0,0,1,3.13-7.06c0.81-1.4,1.57-2.84,2.39-4.23A2.34,2.34,0,0,1,243.22,354.73Z" transform="translate(-87.09 -189.73)"/><path class="cls-7" d="M333.42,354.2a41.77,41.77,0,0,0,3.35,7.12,46.82,46.82,0,0,1,3.75,7.6,1.89,1.89,0,0,1,0,1.44,19.31,19.31,0,0,0-.65,2.19,4.28,4.28,0,0,1-2.07,2.78L330,379.51a2.17,2.17,0,0,1-.69.21,0.7,0.7,0,0,1-.93-0.68c0-1.42-.32-2.79.07-4.27,1.12-4.28,2-8.62,3-12.93,0.56-2.41,1.21-4.79,1.82-7.19A2.93,2.93,0,0,1,333.42,354.2Z" transform="translate(-87.09 -189.73)"/><path class="cls-7" d="M342,366.41A2.53,2.53,0,0,1,340.1,365q-3-5.9-5.92-11.84a3,3,0,0,1-.26-1.21,0.71,0.71,0,0,1,.49-0.43c2-.35,4-0.62,6-1,1.76-.33,3.51-0.71,5.24-1.17a0.75,0.75,0,0,1,1.1.54,2.81,2.81,0,0,1,0,1.46c-1.5,4.92-3,9.82-4.58,14.73C342.13,366.16,342.08,366.25,342,366.41Z" transform="translate(-87.09 -189.73)"/><path class="cls-7" d="M234.7,366.7c-0.82-2.55-1.65-5-2.37-7.45s-1.35-5-2-7.45a5.19,5.19,0,0,1-.15-1.32,1.15,1.15,0,0,1,1.09-1.29,8.77,8.77,0,0,1,3.57.28c1.73,0.5,3.53.79,5.3,1.15a2.11,2.11,0,0,1,1.91,1.51,1.4,1.4,0,0,1-.13.89c-0.5,1-1.1,1.86-1.57,2.83-1.37,2.83-2.68,5.7-4.05,8.53a21.23,21.23,0,0,1-1.25,2A1.62,1.62,0,0,1,234.7,366.7Z" transform="translate(-87.09 -189.73)"/><path class="cls-7" d="M234.42,364c-0.09.69,0.48,4.48-.16,4.71s-1.26,2.14-1.6,1.67c-4.67-5.08-7.84-16.41-9-21.67a6.69,6.69,0,0,1,.21-2.67c0.54-.93,3.18.94,3.89,0.13s1.31-.62,1.61.41l4.06,14Z" transform="translate(-87.09 -189.73)"/><path class="cls-7" d="M351,353.22c-0.32,1.13-.52,2.12-0.88,3.06-1.18,3.08-2.33,6.18-3.66,9.2a32.58,32.58,0,0,1-2.58,4.2,0.86,0.86,0,0,1-1.12.35,0.77,0.77,0,0,1-.47-1,34.05,34.05,0,0,1,1-3.39A87.47,87.47,0,0,0,346.49,355c0.29-1.17.68-2.31,1.08-3.45s1-1.15,1.8-.46a4.54,4.54,0,0,1,.81.72A15.69,15.69,0,0,1,351,353.22Z" transform="translate(-87.09 -189.73)"/><path class="cls-9" d="M306.71,215.88c0-.14,0-0.28,0-0.42,0-1.59.55-2.05,2.13-1.85,0.64,0.08,1.28.15,1.9,0.29a1.12,1.12,0,0,1,1,1,1.37,1.37,0,0,1-.87,1.39,6.31,6.31,0,0,1-1,.31c-0.66.16-1.34,0.27-2,.46-0.87.25-1.09,0.11-1.12-.79,0-.14,0-0.28,0-0.42h0Z" transform="translate(-87.09 -189.73)"/><path class="cls-9" d="M328.55,220.8c0.06-.6.08-1.16,0.17-1.71a1.09,1.09,0,0,1,.93-0.92c0.59-.12,1.18-0.25,1.78-0.34a1.9,1.9,0,0,1,2.11,1A9.17,9.17,0,0,1,328.55,220.8Z" transform="translate(-87.09 -189.73)"/><path class="cls-10" d="M353.26,348.68a9.52,9.52,0,0,1-.43,1c-0.34.59-.69,1.18-1.09,1.73a0.67,0.67,0,0,1-.56.24,2.73,2.73,0,0,1-1.35-2.33,1.73,1.73,0,0,1,1.12-1.38,4.13,4.13,0,0,1,.59-0.3,1.62,1.62,0,0,1,.86-0.3A1.6,1.6,0,0,1,353.26,348.68Z" transform="translate(-87.09 -189.73)"/><path class="cls-11" d="M313.2,314c-0.45-.7-0.92-1.38-1.33-2.09a119.72,119.72,0,0,1-6.45-13c-1.59-3.67-3.2-7.33-4.6-11.08-1.26-3.37-2.31-6.82-3.35-10.26-0.86-2.84-1.66-5.71-2.31-8.61-0.75-3.35-1.32-6.74-2-10.11a9.94,9.94,0,0,1-.17-1.07c0-.37,0-0.74,0-1.11l0.21,0c0.25,1.18.51,2.35,0.76,3.53,0.73,3.48,1.42,7,2.2,10.44a31.44,31.44,0,0,0,1.11,3.5,15,15,0,0,1,.9,4.41,1.77,1.77,0,0,0,.12.76c0.82,1.48,1,3.16,1.52,4.72s1.17,2.85,1.76,4.27c1.22,2.94,2.41,5.88,3.64,8.81,0.86,2,1.68,4.11,2.67,6.09,1.7,3.4,3.52,6.74,5.28,10.1a3.41,3.41,0,0,1,.19.63Z" transform="translate(-87.09 -189.73)"/><path class="cls-11" d="M273,262.84c-0.57,1.42-1.07,2.87-1.73,4.24-2.43,5-4.92,10.05-7.38,15.08-2,4-3.87,8.1-5.92,12.09-1.31,2.56-2.83,5-4.27,7.5-1.32,2.28-2.66,4.55-4,6.82a2,2,0,0,1-.63.68,11.22,11.22,0,0,1,.57-1.46c1.17-2.11,2.38-4.2,3.55-6.3,1.36-2.42,2.76-4.82,4-7.28,2.26-4.33,4.51-8.68,6.65-13.07,2.59-5.32,5.06-10.69,7.59-16a18.77,18.77,0,0,1,1.09-1.87,1.83,1.83,0,0,1,.44-0.36Z" transform="translate(-87.09 -189.73)"/><path class="cls-11" d="M296.9,289.92c-0.29-1.11-.61-2.22-0.86-3.35-0.55-2.52-1.1-5-1.6-7.58-0.44-2.24-.82-4.5-1.22-6.75q-0.77-4.38-1.51-8.77c-0.27-1.6-.55-3.2-0.8-4.81a3.46,3.46,0,0,1,.09-0.88l0.23,0c0.18,0.72.42,1.44,0.54,2.17,0.48,2.89.88,5.79,1.38,8.67,0.35,2,.84,4,1.23,5.94q0.85,4.3,1.66,8.62c0.32,1.69.61,3.39,0.89,5.09,0.09,0.53.1,1.07,0.15,1.61Z" transform="translate(-87.09 -189.73)"/><path class="cls-11" d="M337.06,348.15a27.28,27.28,0,0,1-2.24-2c-1.15-1.28-2.22-2.62-3.28-4-1.69-2.15-3.4-4.29-5-6.51-2-2.72-3.83-5.5-5.68-8.29-1.46-2.19-2.83-4.44-4.23-6.67a7,7,0,0,1-.47-1.16l0.23-.11c0.73,1.16,1.45,2.32,2.2,3.47,2.23,3.41,4.39,6.86,6.72,10.19,2,2.92,4.27,5.72,6.46,8.55,1,1.29,2.09,2.53,3.16,3.76a7,7,0,0,0,1.05.88,3.27,3.27,0,0,1,1.22,1.71Z" transform="translate(-87.09 -189.73)"/><path class="cls-11" d="M341.25,332c-0.87-1.16-1.82-2.27-2.59-3.5-2.83-4.51-5.6-9.06-8.39-13.6-1.21-2-2.39-4-3.57-6a2.65,2.65,0,0,1-.16-0.41l0.19-.12A23.44,23.44,0,0,1,328.6,311c3.05,5.69,6.57,11.09,10.12,16.47,0.81,1.23,1.6,2.48,2.4,3.72,0.13,0.21.24,0.44,0.35,0.66Z" transform="translate(-87.09 -189.73)"/><path class="cls-11" d="M251,315.87c0,1.74-11.34,21.06-13.08,22.34,0.08-.16.15-0.33,0.25-0.48,2.7-4.45,5.42-8.88,8.08-13.36,1-1.67,1.78-3.45,2.72-5.16C249.54,318.08,250.27,317,251,315.87Z" transform="translate(-87.09 -189.73)"/><path class="cls-11" d="M336.69,334a39.43,39.43,0,0,1-8.18-10.51A98,98,0,0,1,336.69,334Z" transform="translate(-87.09 -189.73)"/><path d="M238.62,325.83c-0.46.73-.88,1.48-1.38,2.18q-2.16,3-4.38,6c-0.92,1.23-1.89,2.43-2.84,3.64a3.32,3.32,0,0,1-.39.36l-0.14-.08a11.23,11.23,0,0,1,.76-1.41c0.94-1.29,2-2.54,2.89-3.83,1.19-1.63,2.32-3.3,3.52-4.93,0.54-.73,1.15-1.4,1.73-2.1Z" transform="translate(-87.09 -189.73)"/><path class="cls-11" d="M317.59,305.83a77.31,77.31,0,0,1,7,11.73C323.9,317.19,317.69,306.8,317.59,305.83Z" transform="translate(-87.09 -189.73)"/><path class="cls-11" d="M315,291a36.93,36.93,0,0,1-5.54-10.62A79.87,79.87,0,0,1,315,291Z" transform="translate(-87.09 -189.73)"/><path class="cls-11" d="M323.39,303.7c-0.72-.47-6.29-8.61-6.27-9.24A49.81,49.81,0,0,1,323.39,303.7Z" transform="translate(-87.09 -189.73)"/><path d="M349,341.08a21.19,21.19,0,0,1-5.72-6.43l0.11-.1,5.71,6.43Z" transform="translate(-87.09 -189.73)"/><path d="M241.89,320.9a32.63,32.63,0,0,1,3.8-6.27C245.75,315.64,243.26,319.77,241.89,320.9Z" transform="translate(-87.09 -189.73)"/><path class="cls-11" d="M316.21,303.73a18.72,18.72,0,0,1-3.37-5.57C313.63,298.53,316.2,302.73,316.21,303.73Z" transform="translate(-87.09 -189.73)"/><path class="cls-12" d="M282.33,394.67L310.67,388s-8.43-13.2-14.26-37.73-10.57-41.08-10.57-41.08Z" transform="translate(-87.09 -189.73)"/><path class="cls-13" d="M764.74,327.86a59.28,59.28,0,0,1-4.61,23.6,56.7,56.7,0,0,1-31.73,30.92,65.79,65.79,0,0,1-47.46,0,57.91,57.91,0,0,1-19-12.3,57.28,57.28,0,0,1-12.66-18.62,59.26,59.26,0,0,1-4.61-23.6A61.46,61.46,0,0,1,649.2,304a55.88,55.88,0,0,1,12.57-18.71,56.55,56.55,0,0,1,19.08-12.2,64.59,64.59,0,0,1,23.87-4.34,62.29,62.29,0,0,1,23.6,4.43,59,59,0,0,1,19.08,12.3,56.38,56.38,0,0,1,12.75,18.71A60,60,0,0,1,764.74,327.86Z" transform="translate(-87.09 -189.73)"/><path class="cls-13" d="M536,380.63V266.9h51.41a49.71,49.71,0,0,1,16.82,2.71,36.42,36.42,0,0,1,13,7.87,35.56,35.56,0,0,1,8.41,12.39,42.84,42.84,0,0,1,3,16.45q0,19.17-10.76,29.56t-31.55,10.4H572.24l-1,34.35H536Zm35.26-64c4.46-.12,16.53-1.08,18.22-2.89S592,309.33,592,306s-0.84-6.06-2.53-7.68-13.76-2.44-18.22-2.44v20.79Z" transform="translate(-87.09 -189.73)"/><path class="cls-13" d="M471.39,379.13v-58l-19.25,38.65-22,.5-19.5-38.79v57.68H377.55V265.4h40L441,317.29l24.77-51.89h38.69V379.13H471.39Z" transform="translate(-87.09 -189.73)"/><path class="cls-7" d="M759.74,327.86a59.28,59.28,0,0,1-4.61,23.6,56.7,56.7,0,0,1-31.73,30.92,65.79,65.79,0,0,1-47.46,0,57.91,57.91,0,0,1-19-12.3,57.28,57.28,0,0,1-12.66-18.62,59.26,59.26,0,0,1-4.61-23.6A61.46,61.46,0,0,1,644.2,304a55.88,55.88,0,0,1,12.57-18.71,56.55,56.55,0,0,1,19.08-12.2,64.59,64.59,0,0,1,23.87-4.34,62.29,62.29,0,0,1,23.6,4.43,59,59,0,0,1,19.08,12.3,56.38,56.38,0,0,1,12.75,18.71A60,60,0,0,1,759.74,327.86Z" transform="translate(-87.09 -189.73)"/><path class="cls-7" d="M531,380.63V266.9h51.41a49.71,49.71,0,0,1,16.82,2.71,36.42,36.42,0,0,1,13,7.87,35.56,35.56,0,0,1,8.41,12.39,42.84,42.84,0,0,1,3,16.45q0,19.17-10.76,29.56t-31.55,10.4H567.24l-1,34.35H531Zm35.26-64c4.46-.12,16.53-1.08,18.22-2.89S587,309.33,587,306s-0.84-6.06-2.53-7.68-13.76-2.44-18.22-2.44v20.79Z" transform="translate(-87.09 -189.73)"/><path class="cls-13" d="M202,357.15a63.23,63.23,0,0,1-8.14,11.93,47.12,47.12,0,0,1-11,9.31,56.72,56.72,0,0,1-14.28,6.15,64.81,64.81,0,0,1-17.72,2.26,62.51,62.51,0,0,1-23.6-4.34,54.42,54.42,0,0,1-30.83-30.92,67.31,67.31,0,0,1,0-47.55,54.42,54.42,0,0,1,30.83-30.92,62.49,62.49,0,0,1,23.6-4.34q18.62,0,30.2,6.42A46.86,46.86,0,0,1,199.5,294l-24.59,22.78q-7.05-16.09-23.14-16.09a25,25,0,0,0-10.4,2.08,25.39,25.39,0,0,0-8,5.7,24.4,24.4,0,0,0-5.24,8.59,31.24,31.24,0,0,0-1.81,10.76,30.46,30.46,0,0,0,1.81,10.67,25.24,25.24,0,0,0,5.15,8.5,24,24,0,0,0,8,5.7,25.63,25.63,0,0,0,10.49,2.08q9.94,0,15.91-4.61a26.64,26.64,0,0,0,8.68-11.48Z" transform="translate(-87.09 -189.73)"/><path class="cls-7" d="M466.39,379.13v-58l-19.25,38.65-22,.5-19.5-38.79v57.68H372.55V265.4h40L436,317.29l24.77-51.89h38.69V379.13H466.39Z" transform="translate(-87.09 -189.73)"/><path class="cls-11" d="M360.16,345.19c-0.12-.07.13,0,0,0-3.28-.06-4.87.43-6.08,3.19-0.63,1.44-1.11,2.94-1.63,4.42a0.72,0.72,0,0,0,.13.58c1.07,1.28,2.18,2.54,3.26,3.82a28.12,28.12,0,0,1,1.89,2.28,108,108,0,0,0,11.54,13.68c3.38,3.52,6.86,7,10.3,10.42a10.39,10.39,0,0,0,.95.85,2.81,2.81,0,0,0,1.91.61,7.63,7.63,0,0,1,1.86.12,2.28,2.28,0,0,1,1.9,2.92,10.68,10.68,0,0,1-.53,1.6,1.88,1.88,0,0,1-1.6,1.31,19.88,19.88,0,0,1-2.88,0c-0.36,0-.66-0.27-0.38-0.66,0.88-1.2.35-2.36-.25-3.37a15.42,15.42,0,0,0-2.22-2.78c-1.32-1.38-2.69-2.71-3.88-4.23s-2.53-2.49-3.74-3.79c-4-4.27-8-8.52-11.82-12.9-2.11-2.4-3.93-5.07-5.89-7.6-0.34-.44-0.71-0.85-1.19-1.41-0.53,1.22-1,2.24-1.42,3.31a63.1,63.1,0,0,1-3.37,8.92,44.78,44.78,0,0,1-2.54,4,1,1,0,0,0-.21,1,29.12,29.12,0,0,0,2.63,6.09c3.83,7,7.78,13.9,12.06,20.62,0.84,1.32,1.76,2.6,2.66,3.89a1,1,0,0,0,1.44.39,1.83,1.83,0,0,1,2.25.23,2.64,2.64,0,0,1,.87,2.85,7.52,7.52,0,0,1-1.09,2.14,2.32,2.32,0,0,1-3.26.19,1.16,1.16,0,0,1-.17-0.55c-0.32-1.64-.55-3.3-1-4.9a6.81,6.81,0,0,0-1.33-2.48,58,58,0,0,1-5.78-8.49c-3.24-5.6-6.42-11.24-9.66-16.84a7.5,7.5,0,0,0-1.24-1.45,0.57,0.57,0,0,0-.85.07c-1.17,1-2.35,2-3.57,2.89a28.15,28.15,0,0,1-5.41,3c-1,.45-1.89,1.07-2.84,1.6a0.65,0.65,0,0,0-.36.78A54.82,54.82,0,0,0,332,390c1.22,3.8,2.27,7.65,3.55,11.42,1,3.11,2.29,6.15,3.51,9.2a20,20,0,0,0,1.36,2.56,3.09,3.09,0,0,0,1.93,1.63,1.33,1.33,0,0,1,1.07,1.43,16.09,16.09,0,0,1-.28,2.33,1.09,1.09,0,0,1-1.38.86,0.85,0.85,0,0,0-1,.36c-0.63.85-1.26,0.76-1.73-.21a3.91,3.91,0,0,1,.23-4.13,1,1,0,0,0,.09-0.81c-1-2.68-2.12-5.32-3-8-2.7-8-5.33-15.93-8-23.9a0.91,0.91,0,0,0-1.51-.64c-1.67.8-3.34,1.62-5,2.42a35.46,35.46,0,0,1-8,2.91c-0.28.06-.53,0.3-0.81,0.35a3.82,3.82,0,0,1-1.34.06,2.68,2.68,0,0,1-2-1.59,14.22,14.22,0,0,0-2.11-3.2,7.93,7.93,0,0,1-1.13-2c-1.54-3.61-3.1-7.22-4.56-10.87a201.22,201.22,0,0,1-6.47-19.43c-1.19-4.18-2.56-8.32-3.62-12.54-1.12-4.43-2.11-8.91-2.88-13.41-0.44-2.61-1.05-5.16-1.68-7.72a2.05,2.05,0,0,0-.29-0.5l-0.26.07a33.49,33.49,0,0,0-.46,3.63c-0.09,4,0,7.91-.12,11.87-0.13,6-.33,11.9-0.49,17.85a47.57,47.57,0,0,1-.14,4.95c-0.2,1.49-.2,3-0.29,4.45q-0.18,3.08-.54,6.14c-0.15,1.27-.23,2.54-0.36,3.81s-0.23,2.69-.35,4c-0.57,6.31-.59,12.93-1.16,19.24a3.56,3.56,0,0,0-.74-0.14,9.86,9.86,0,0,1-.25-1.36,17.4,17.4,0,0,1,0-2.42c0.52-5.76,1.11-11.52,1.59-17.29q0.75-9.13,1.31-18.28c0.15-2.51-.05-5,0.12-7.55,0.62-9,.32-17.95.46-26.92,0-1.23.23-2.45,0.31-3.67,0-.57-0.06-1.16,0-1.73s0.11-1,.13-1.44c0-.71.61-4.24-1-1.58a3,3,0,0,0-.27.3c-6,8.92-12,17.81-18,26.76-3,4.5-5.86,9.08-8.72,13.67a3.44,3.44,0,0,0-.37,2.09c0.19,1.57,1.3,3.51,1.3,4.89,1.83,6.94,3.3,13.65,5.16,20.57,0.67,2.49,1.37,5,2,7.47a0.56,0.56,0,0,0,.61.51,20,20,0,0,1,13.15,5.93c0.7,0.67,2,1.54,3.06,1a3.06,3.06,0,0,1-1,2.12,0.57,0.57,0,0,1-.9.19,18.74,18.74,0,0,1-2.28-1.77,15.78,15.78,0,0,0-5.44-3.73,19.32,19.32,0,0,1-2.41-1.66,6.4,6.4,0,0,0-1.91-.84c-3.48-.76-7-1.39-10.46-2.21-2.09-.5-4.12-1.25-6.17-1.91a1.55,1.55,0,0,0-2.17,1,13,13,0,0,0-.49,2.05c-0.82,4.13-1.44,8.3-2.62,12.35-0.41,1.4-.44,2.9-0.74,4.34-0.65,3.16-1.36,6.3-2,9.46a14.06,14.06,0,0,0-.24,2.4,1.1,1.1,0,0,0,.36.8,3.61,3.61,0,0,1,1.23,4.17,2.11,2.11,0,0,1-2.5,1.67,4.94,4.94,0,0,1-4.19-3.37,1.84,1.84,0,0,1,1.91-2.72,4,4,0,0,0,1-.05,1.68,1.68,0,0,0,1.42-1.52c0.34-2,.89-4,1.26-6,0.32-1.72.44-3.48,0.77-5.2a18,18,0,0,1,.91-2.42,1.32,1.32,0,0,0,0-.82c-0.4-1.06.14-1.72,0.34-2.78,0.67-3.5,1.4-7.49,2-11,0.21-1.21.83-2.15,0.88-3.37a4.67,4.67,0,0,0-1.37-.79c-2.72-1.46-5.45-2.89-8.17-4.33a0.85,0.85,0,0,0-.16-0.08,29,29,0,0,1-4.67-2.17c-0.75-.62-0.73-1.74-1.75-1-0.17.12-1.56,3.23-1.64,3.42-0.78,1.73-1.57,3.45-2.29,5.2-0.61,1.49-1,3.08-1.74,4.5a123.9,123.9,0,0,0-7.24,17.13,3.76,3.76,0,0,0-.09,1.71,9,9,0,0,1,.07,1.21,3.73,3.73,0,0,1-3.7,3.43,1.4,1.4,0,0,1-1.26-.89,3.94,3.94,0,0,1,1-4.58,4,4,0,0,1,1.48-.89,3.29,3.29,0,0,0,2.23-1.89c0.82-1.9,1.57-3.83,2.36-5.75s1.48-3.57,2.23-5.36c1.65-3.94,3.32-7.87,4.95-11.81,1-2.51,2-5,3-7.57a0.92,0.92,0,0,0-.15-0.69c-1.35-2.13-2.78-4.21-4-6.38a36.53,36.53,0,0,1-1.92-4.23c-0.32-.76-0.7-4.06-1.51-3.95s-1.82,3.33-2.48,4.09c-3.65,4.15-6.61,8.8-9.8,13.29s-6.23,8.93-9.33,13.41a2.2,2.2,0,0,1-2,1.07l0.42-.78a129.21,129.21,0,0,1,10.46-15.19c1.85-2.4,3.75-4.75,5.51-7.21s3.29-4.93,4.92-7.41c0.51-.77,1-1.54,1.53-2.33a2.42,2.42,0,0,0,.31-2.34c-0.36-.92-0.59-1.88-0.89-2.82a2.5,2.5,0,0,0-.76-1.39,3.43,3.43,0,0,1-.46-0.9,15.73,15.73,0,0,0-1.08-1.58,0.64,0.64,0,0,0-1-.07c-0.77.6-3.21-1.9-3-2.18a26.05,26.05,0,0,1,4-4.66,118,118,0,0,0,15.67-18.65c9.59-13.9,18.67-28.12,26.18-43.29,3.47-7,6.43-14.25,9.49-21.45q4.81-11.32,9.66-22.62a1.21,1.21,0,0,0-.18-1.53,1.39,1.39,0,0,1,.42-2.36,7.63,7.63,0,0,1,1.27-.55c2-.72,1.93-2.16,2.35-4.06-0.25-1.75-.31-3.53-0.53-5.29-0.13-1,0-14-.08-16.18,0.19-3.16,0-6.1.16-9.26a2.59,2.59,0,0,0-.36-1.3c-1.05-1.88-.75-2.59,1.25-3.35a3.21,3.21,0,0,1,2.86.23,1.41,1.41,0,0,1,.82,1.75c-0.11.49-.36,0.94-0.47,1.43a15.74,15.74,0,0,0-.53,2.71,1.2,1.2,0,0,0,1.61,1.39c1-.18,2-0.59,3-0.76a46.65,46.65,0,0,1,8-1.1c2.08,0,4.16-.23,6.23-0.18a14,14,0,0,1,3.66.69,2.8,2.8,0,0,1,2.07,2.81c0.08,2.15.75,2.5,2.88,2.07,2.48-.5,5-0.79,7.52-1.12a51,51,0,0,1,5.23-.5,20.09,20.09,0,0,1,4,.37,2.38,2.38,0,0,1,2,2.37c0.15,1.65.95,2.17,2.56,1.78a68.34,68.34,0,0,1,11.29-1.63,70.06,70.06,0,0,1,11.73.27,25.92,25.92,0,0,1,3.09.57,2.22,2.22,0,0,1,.91.44,1.06,1.06,0,0,1-.15,1.74,3.1,3.1,0,0,1-.78.32,51,51,0,0,0-7.06,2.82,6.36,6.36,0,0,0-.69.38,0.75,0.75,0,0,0-.08,1.4c0.2,0.16.46,0.24,0.68,0.39a13.37,13.37,0,0,1,1.7,1.22,1.38,1.38,0,0,1,0,2.22l-0.32.37c0.42,0.31.79,0.6,1.18,0.88,0.84,0.59,1.71,1.15,2.54,1.75a6.89,6.89,0,0,1,2.27,3,1.19,1.19,0,0,1-.08,1.36,1.25,1.25,0,0,1-1.42.39c-2.62-.83-5.32-0.57-8-0.48a168.44,168.44,0,0,0-17.2,1.84c-1.93.27-3.85,0.64-5.79,0.94a4.1,4.1,0,0,1-3.74-1.1,3.22,3.22,0,0,1-.7-1.09,3.24,3.24,0,0,0-3.72-2.14c-1.79.16-3.57,0.46-5.36,0.71-2.25.31-4.51,0.64-6.76,0.92a7.59,7.59,0,0,1-1.87,0c-2.44-.32-3.62-1.61-3.8-4.16-0.07-1,0-2,0-3.19-1.18.06-2.26,0-3.32,0.19-2.11.31-4.21,0.71-6.32,1.07l-4.58.77a2.36,2.36,0,0,0-2.28,2.33,15.13,15.13,0,0,0,0,2.35c0.08,1.89.19,3.79,0.29,5.68a1.71,1.71,0,0,0,1.56,1.89,13.51,13.51,0,0,1,2.11.7,1.28,1.28,0,0,1,.72,2c-0.89,1.37-.54,2.57,0,3.94,1.75,4.89,3.4,9.81,5.07,14.72a126.31,126.31,0,0,0,5.51,12.56,265.06,265.06,0,0,0,14,26.12c4.07,6.68,8,13.46,12.09,20.12,2.45,4,5,7.9,7.74,11.71a151,151,0,0,0,17,19.62c2.23,2.21,2.39,2.76,5.18,4.19m35.68,21.76,4.4,2.23M273,262.84l0,0a2.54,2.54,0,0,1,.08-0.47c0.52-1.44,1-2.87,1.57-4.31,1.05-2.94,2.12-5.87,3.14-8.81a12.8,12.8,0,0,0,.36-2l-0.26-.09a5.46,5.46,0,0,0-.89,1.1c-0.85,1.88-1.65,3.79-2.44,5.69-3,7.3-5.92,14.65-9.42,21.74A352.82,352.82,0,0,1,238,321.14a153,153,0,0,1-10.61,13.47c-2.43,2.77-5,5.43-7.51,8.14-0.24.25-.48,0.48-0.12,0.79a4,4,0,0,0,3,1,3.08,3.08,0,0,0,1.55-.83c0.71-.6,1.32-1.31,2-2l0.16,0.13c-0.23.38-.48,0.76-0.7,1.15-0.4.69-.8,1.38-1.17,2.08a0.44,0.44,0,0,0,.32.7c1.29,0.4,2.61.76,3.88,1.21a2.35,2.35,0,0,0,2.74-1c1.44-1.72,2.77-3.54,4.14-5.31,0.33-.43.69-0.84,1-1.26l0.14,0.1a2.38,2.38,0,0,1-.2.47q-1.25,1.8-2.52,3.58c-0.63.88-1.35,1.7-1.9,2.63a1.17,1.17,0,0,0,.84,1.84c1.21,0.33,2.42.71,3.66,0.93,1.57,0.29,3.17.45,4.76,0.63a0.82,0.82,0,0,0,.63-0.29c1.49-2.09,2.94-4.21,4.41-6.31,0.43-.62.88-1.23,1.32-1.84a0.33,0.33,0,0,1,0,.34c-0.41.7-.81,1.42-1.26,2.1-1,1.53-2.06,3-3.07,4.55a1.17,1.17,0,0,0,.89,2c1,0.14,2.06.31,3.07,0.54a54.48,54.48,0,0,0,7.89.92,0.72,0.72,0,0,0,.79-0.4c0.35-.69.77-1.34,1.07-2,1-2.41,1.94-4.84,2.91-7.26,1.1-2.75,2.2-5.5,3.28-8.26,0.79-2,1.45-4.14,2.32-6.14a71.27,71.27,0,0,0,3.12-8.44c1.14-3.89,2.33-7.77,3.51-11.65,0.64-2.09,1.32-4.17,1.92-6.28,1.09-3.82,2.16-7.65,3.21-11.49s2.08-7.68,3.12-11.51a6.15,6.15,0,0,1,.26-0.65,1.32,1.32,0,0,1,.11.64,26.07,26.07,0,0,1-1.35,6.17q-1.68,5.82-3.37,11.63c-1.15,4-2.29,7.91-3.47,11.85-0.7,2.34-1.45,4.67-2.22,7-1.18,3.57-2.34,7.15-3.61,10.68s-2.71,7.18-4.09,10.76c-0.86,2.25-1.75,4.48-2.62,6.73a1.63,1.63,0,0,0,0,1.62c0.1-.13.2-0.22,0.27-0.33,4.21-6.2,8.36-12.45,12.66-18.59,3.65-5.22,6.69-10.84,10.69-15.83,1.06-1.32,1.71-3,3.4-3.69v-0.35c0-4.68-.08-9.37,0-14s-0.28-9.31.29-14c0.37-3.07.17-6.2,0.26-9.31,0.05-2,.19-4,0.22-6q0-3.27,0-6.53c-0.06-2-.22-4-0.29-6a9.8,9.8,0,0,1,.24-1.72h0.26a5.22,5.22,0,0,1,.28,1.12c0,1.31,0,2.61,0,3.92,0,2.2.09,4.4,0.07,6.59q0,3.87-.2,7.74c0,1.08-.32,2.16-0.34,3.24-0.06,3.64-.05,7.28-0.06,10.92q0,12.26,0,24.52a1.91,1.91,0,0,0,.14.69,21.57,21.57,0,0,0,2.36,4c2.41,3.53,4.7,7.15,7.06,10.72q8.52,12.86,17.07,25.7a21.7,21.7,0,0,0,1.7,2,1.55,1.55,0,0,0,.43-1.91c-0.49-1.18-.88-2.41-1.37-3.59-1.91-4.63-3.93-9.22-5.75-13.88-2.07-5.29-4-10.64-5.94-16-1-2.84-1.92-5.72-2.76-8.62-1.21-4.2-2.33-8.44-3.47-12.67a8.72,8.72,0,0,1-.16-1.17l0.2,0c0.47,1.48,1,3,1.39,4.44,0.88,3.14,1.67,6.29,2.57,9.42,0.79,2.75,1.58,5.5,2.54,8.19,1.43,4,3,7.95,4.53,11.92,1.66,4.32,3.41,8.61,5,13a102.72,102.72,0,0,0,6.15,13.35,0.69,0.69,0,0,0,.49.33c1.47,0,2.94,0,4.41-.05,1.68-.11,3.36-0.34,5-0.56a27,27,0,0,0,4-.66,67.36,67.36,0,0,1,8.73-1.65c1.68-.25,3.34-0.63,5-0.95a0.62,0.62,0,0,0,.53-0.88,2.67,2.67,0,0,0-.49-0.94c-0.34-.42-0.78-0.76-1.14-1.17q-3.6-4.06-7.17-8.14c-0.35-.4-0.65-0.84-1-1.27l0.14-.12a0.54,0.54,0,0,1,.21.07c0.65,0.66,1.33,1.29,1.95,2,1.12,1.26,2.16,2.6,3.31,3.83,1.59,1.71,3.29,3.32,4.87,5.05a1.64,1.64,0,0,0,1.93.46c0.48-.14,1-0.31,1.43-0.47l1.8-.64c-0.72-1.66-2.41-2.29-3.18-3.76a20.28,20.28,0,0,1,1.81,1.22c0.75,0.53,1.49,1.08,2.28,1.56a1.1,1.1,0,0,0,.85.05c0.67-.26,1.31-0.61,2-0.9a0.34,0.34,0,0,0,.18-0.56,3,3,0,0,0-.36-0.48c-0.57-.59-1.15-1.16-1.71-1.75-2.67-2.78-5.36-5.54-8-8.36-2.24-2.4-4.48-4.81-6.58-7.34a98.92,98.92,0,0,1-8.53-12.2c-3.49-5.78-6.89-11.6-10.39-17.37-2.21-3.64-4.59-7.18-6.77-10.83-4.1-6.86-7.5-14.09-11-21.26q-1.7-3.46-3.41-6.91a1.42,1.42,0,0,0-.41-0.34,3.15,3.15,0,0,0-.28.59,0.87,0.87,0,0,0,.11.4c0.34,1,.67,2,1,3a73,73,0,0,0,3.67,9.62c1.05,2,2,4.08,2.94,6.13,0.18,0.39.3,0.81,0.44,1.22a0.3,0.3,0,0,1-.26-0.14A75.74,75.74,0,0,1,302.53,266c-1.59-4.16-3.12-8.33-4.69-12.5a47.89,47.89,0,0,1-2.77-9,3.08,3.08,0,0,0-.86-1.53,0.61,0.61,0,0,0-.57-0.13,0.92,0.92,0,0,0-.38.54,1.35,1.35,0,0,0,.09.59c1.24,5.46,2.48,10.93,3.74,16.39,0.28,1.23.65,2.44,1.05,3.64,0.34,1,.84,1.95,1.17,3,0.76,2.3,1.35,4.66,2.22,6.91,1.23,3.19,2.56,6.34,4,9.43,2,4.12,4.09,8.16,6.14,12.24,0.19,0.37.32,0.77,0.47,1.16l-0.15.07a7.85,7.85,0,0,1-.73-1c-0.64-1.22-1.23-2.47-1.85-3.7-2.06-4.1-4.18-8.17-6.17-12.3a54.19,54.19,0,0,1-2.3-5.86c-0.86-2.5-1.61-5-2.39-7.56-0.92-3-2-6-2.71-9-1.2-4.9-2.65-9.75-3.25-14.79-0.1-.81-0.34-1.6-0.56-2.59a5,5,0,0,1,.73.48c0.33,0.33.61,0.7,0.93,1a1.7,1.7,0,0,0,1.53.67c-0.09-.3-0.17-0.56-0.26-0.82a36.94,36.94,0,0,1-1.21-3.57,14.28,14.28,0,0,0-1.94-4.48,2.77,2.77,0,0,0-2.69-1.41c-1.35.13-2.69,0.37-4,.56a2.49,2.49,0,0,0-2.16,1.88c-0.41,1.26-1,2.47-1.44,3.7l-1.41,3.65a1.09,1.09,0,0,0,1.33-.38c0.57-.54,1.12-1.1,1.74-1.59s1-.46,1.47.28,0.88,1.63,1.32,2.44l1.81,3.31a6.5,6.5,0,0,0,.77-1c0.32-.62.55-1.29,0.87-1.92a1.62,1.62,0,0,1,1.16-1,3.27,3.27,0,0,1,0,.49,1,1,0,0,0,.68,1.21,0.71,0.71,0,0,1,.3.51c0.2,1.21.34,2.42,0.55,3.63a6.59,6.59,0,0,1,.08,3.24c-1-2.11-.67-4.5-2.07-6.35a1.78,1.78,0,0,0-.22.87c0.2,2.2.45,4.4,0.65,6.61,0.09,1,.12,1.93.17,2.89l-0.16,0a3.42,3.42,0,0,1-.16-0.5q-0.37-2.33-.73-4.65c-0.14-.9-0.23-1.8-0.39-2.69a2.5,2.5,0,0,0-.39-0.7l-0.62.42a1.47,1.47,0,0,1-.42.28,1.09,1.09,0,0,0-.91,1c-0.08.66-.19,1.31-0.31,2-0.42,2.16-.89,4.32-1.27,6.49-0.34,1.95-.53,3.93-0.89,5.87-0.68,3.69-1.41,7.36-2.17,11a2.83,2.83,0,0,1-1,1.94l0.53-2.53,1.91-9.19c0.29-1.43.66-2.84,0.86-4.28,0.24-1.69.27-3.4,0.51-5.09a27.65,27.65,0,0,1,1.2-6,6,6,0,0,0,.27-2.66,2.45,2.45,0,0,0-1.17-2c-0.08.24-.16,0.43-0.21,0.62-0.45,1.66-.82,3.35-1.36,5-1.22,3.71-2.54,7.38-3.78,11.08s-2.49,7.56-3.73,11.34c-1,3.16-2,6.33-3.08,9.48-2.36,7-4.67,14-7.16,20.89q-2.68,7.46-5.77,14.78c-1.9,4.47-4,8.84-6.17,13.22-1.17,2.4-2.5,4.72-3.77,7.07-0.27.5-.58,1-0.87,1.48l-0.17-.1c0.79-1.63,1.55-3.27,2.37-4.88,1.74-3.41,3.64-6.75,5.26-10.21,1.74-3.71,3.32-7.5,4.81-11.32,2-5.06,3.83-10.16,5.65-15.28,1.17-3.3,2.16-6.66,3.29-10,0.95-2.79,2-5.52,3-8.32,1.57-4.84,3-9.73,4.56-14.58,0.37-1.15,1-2.2,1.42-3.35,1-3.1,1.94-6.23,2.93-9.34a43.62,43.62,0,0,0,2-7.79,5.26,5.26,0,0,0,0-1.08,3.22,3.22,0,0,0-1-2.18c-0.07.23-.11,0.38-0.15,0.53-0.31,1.17-.6,2.34-0.92,3.5a88.27,88.27,0,0,1-3.36,9c-1.62,4.14-3.13,8.32-4.77,12.45-1,2.47-2.14,4.86-3.14,7.31-1.16,2.82-2.16,5.7-3.37,8.5-1.89,4.38-3.86,8.73-5.85,13.06q-2,4.46-4.26,8.84c-1.72,3.4-3.52,6.76-5.3,10.13-0.27.51-.64,1-1,1.46l-0.22-.12a14.31,14.31,0,0,1,.59-1.48c1.19-2.27,2.47-4.5,3.61-6.8,2-4,3.93-8,5.87-12.07,0.78-1.6,1.56-3.21,2.28-4.84,1.47-3.3,2.91-6.6,4.36-9.91,1-2.22,2-4.42,2.9-6.68,2.6-6.54,5.12-13.12,7.71-19.66a86.15,86.15,0,0,0,3.32-10,15.85,15.85,0,0,0,.25-1.87,3.68,3.68,0,0,0-2.17,2.5c-0.14.58-.26,1.18-0.43,1.76q-0.44,1.44-.94,2.87c-1.28,3.67-2.53,7.35-3.91,11A19.89,19.89,0,0,1,273,262.84Zm35.49,119.37a8,8,0,0,0,.94-3c0.27-1.66.79-3.28,1.15-4.93a91.08,91.08,0,0,1,5.68-18.13,1.32,1.32,0,0,0,.17-0.57A2.57,2.57,0,0,1,317,354a1.41,1.41,0,0,0-.45-2.1c-0.56-.42-1.08-0.9-1.61-1.35L313.13,349a13.77,13.77,0,0,1-1.31-1.15c-2.69-3-5.31-6-8.06-8.95a66.3,66.3,0,0,1-11.46-17.62q-2-4.3-4-8.59a4.29,4.29,0,0,0-.44-0.62,1.18,1.18,0,0,0-.13.72c0.23,1.49.46,3,.73,4.47,0.59,3.33,1.14,6.68,1.82,10a269,269,0,0,0,10.27,36.78A108.16,108.16,0,0,0,307.84,381Zm4.38-179.34c0-.91,0-1.82,0-2.72a3.17,3.17,0,0,0-2.64-3.41,21.75,21.75,0,0,0-3.46-.5,36,36,0,0,0-11.32,1.1,22.31,22.31,0,0,0-6.12,2,5,5,0,0,0-1.45,1.22,4,4,0,0,0-.67,2.52c0,1.87,0,3.76-.14,5.62a43.15,43.15,0,0,0-.07,5.77,6.67,6.67,0,0,0,.47,1.78c0.1,0.32.32,0.35,0.67,0.23,1.45-.48,2.9-1,4.37-1.34,1.23-.31,1.25-0.17,2.49-0.43,1.44-.3,2.85-0.76,4.29-1,2.08-.36,4.2-0.55,6.28-0.9a11.69,11.69,0,0,1,5.62.18,6.94,6.94,0,0,0,1.18.23,0.7,0.7,0,0,0,.86-0.71,24.72,24.72,0,0,0,.09-3.2C313.17,207.16,312.83,202.87,312.89,202.86ZM323,364.76l0.25-.08a29.74,29.74,0,0,1,1.8,3.1c0.63,1.45,1.09,3,1.6,4.49a0.85,0.85,0,0,0,.93.67c0.55,0,.53-0.4.6-0.74,0.86-4.2,1.67-8.42,2.58-12.61a22.27,22.27,0,0,1,1.33-5.31,2.77,2.77,0,0,0,.11-1.07,0.56,0.56,0,0,0-.62-0.65,30.61,30.61,0,0,0-3.73,0c-1.92.21-3.81,0.61-5.72,0.89a1.68,1.68,0,0,0-1.38,2.27c0.56,1.7,1.11,3.41,1.6,5.13a15.21,15.21,0,0,1,.3,2.11,0.43,0.43,0,0,1-.35-0.15,8.24,8.24,0,0,1-1.36-3.2c-0.36-1.48-.77-3-1.17-4.42a0.47,0.47,0,0,0-.73-0.34,1.65,1.65,0,0,0-.93,1.33c-0.16.75-.29,1.5-0.45,2.25-0.77,3.5-1.64,7-2.29,10.51-1,5.63-1.93,11.28-2.91,16.92a0.67,0.67,0,0,0,.56,1,1.14,1.14,0,0,0,.61,0c0.54-.21,1-0.53,1.6-0.69a53.85,53.85,0,0,0,10.42-4.48,0.73,0.73,0,0,0,.38-0.34c0.26-1.33.87-2.63,0.61-4a29,29,0,0,0-.78-3.47c-0.8-2.55-1.69-5.08-2.52-7.62C323.15,365.69,323.08,365.22,323,364.76Zm6.56-142.86a1.58,1.58,0,0,0,1.66,1.23c1.1-.06,2.2-0.15,3.29-0.31,3.57-.52,7.12-1.16,10.7-1.62a110.81,110.81,0,0,1,16.6-.72,0.8,0.8,0,0,0,.79-1.19,2.18,2.18,0,0,0-.56-0.7,25.86,25.86,0,0,0-6.14-4c-1.56-.7-3.15-1.33-4.7-2.07-1-.48-1.06-1.11-0.13-1.68a46.61,46.61,0,0,1,7.42-4c1.18-.46,2.33-1,3.48-1.53a11.77,11.77,0,0,0,1.34-.88,4.75,4.75,0,0,0-.83-0.39,21.07,21.07,0,0,0-4-.78,91.68,91.68,0,0,0-20.11,1.4,2.88,2.88,0,0,0-2.64,3.4c0.2,2.37.4,4.74,0.55,7.11a4.36,4.36,0,0,1-1.65,4.08,22.75,22.75,0,0,1-2.74,1.64C331.15,221.22,330.33,221.54,329.53,221.9ZM254.92,358.82c-0.14,1.15-.19,2.14-0.38,3.11-0.5,2.49-1.09,5-1.61,7.46-0.66,3.17-1.28,6.35-1.91,9.52-0.12.62-.29,1.24-0.37,1.87a2,2,0,0,0,1.7,1.94q4.15,1.27,8.33,2.44c1.13,0.32,2.3.52,3.5,0.78a13.1,13.1,0,0,0-.54-4.36c-0.6-2.23-1.29-4.44-1.87-6.68-1-4.05-2-8.13-3-12.17-0.61-2.29-1.39-4.53-2.09-6.8a0.78,0.78,0,0,0-.92-0.68,0.58,0.58,0,0,1-.73-0.64c0-.36,0-0.73-0.1-1.08a0.93,0.93,0,0,0-1-.86c-1.48-.15-3-0.38-4.43-0.59s-2.7-.46-4.05-0.57A1.18,1.18,0,0,0,244,353c0.15,1.33.44,2.65,0.71,4,1.3,6.36,2.76,12.69,4.57,18.93,0,0.16.11,0.31,0.17,0.47a0.61,0.61,0,0,0,.19-0.08c0.06-.1.11-0.21,0.17-0.31a18.34,18.34,0,0,0,1.59-4.79c0.38-1.72.87-3.42,1.31-5.13,0.24-.94.53-1.87,0.74-2.82s0.3-1.85.47-2.78A2.44,2.44,0,0,1,254.92,358.82Zm74-158.53c-0.76.06-1.41,0.09-2,.15a97.83,97.83,0,0,0-10.62,1.63c-1.89.4-2.55,1.14-2.39,3.08,0,0.16,0,.32,0,0.48,0.14,2.51.32,5,.4,7.55A3.3,3.3,0,0,1,312,216.6c-1.09.42-2.2,0.79-3.29,1.18a1.1,1.1,0,0,0-.11,2.18,6.84,6.84,0,0,0,4.08.46,91.29,91.29,0,0,0,13.11-2.53,19.89,19.89,0,0,1,7.11-.77c2,0.2,2.36-.15,2.27-2.11q-0.18-3.81-.39-7.61c-0.08-1.47-.17-2.94-0.33-4.4a2.45,2.45,0,0,0-2.23-2.34C331.06,200.49,329.92,200.4,328.89,200.29ZM243.22,354.73a2.34,2.34,0,0,0-1.65,1.13c-0.83,1.39-1.58,2.83-2.39,4.23a28.65,28.65,0,0,0-3.13,7.06,9.93,9.93,0,0,0-.39,2.85,23,23,0,0,0,.56,3.46,1.13,1.13,0,0,0,.41.61c3.5,2.66,7.46,4.55,11.29,6.64a0.9,0.9,0,0,0,1.37-.87,2.87,2.87,0,0,0-.13-0.77c-0.57-2-1.2-4.05-1.73-6.1-0.45-1.77-.75-3.59-1.18-5.37-0.61-2.52-1.3-5-1.9-7.56C243.93,358.32,243.6,356.56,243.22,354.73Zm90.2-.53a2.93,2.93,0,0,0-.22.45c-0.61,2.39-1.26,4.78-1.82,7.19-1,4.31-1.85,8.65-3,12.93-0.39,1.48-.06,2.85-0.07,4.27a0.7,0.7,0,0,0,.93.68,2.17,2.17,0,0,0,.69-0.21l7.84-4.16a4.28,4.28,0,0,0,2.07-2.78,19.31,19.31,0,0,1,.65-2.19,1.89,1.89,0,0,0,0-1.44,46.82,46.82,0,0,0-3.75-7.6A41.77,41.77,0,0,1,333.42,354.2ZM342,366.41c0.07-.16.11-0.25,0.14-0.35,1.53-4.91,3.08-9.81,4.58-14.73a2.81,2.81,0,0,0,0-1.46,0.75,0.75,0,0,0-1.1-.54c-1.73.46-3.48,0.84-5.24,1.17-2,.37-4,0.65-6,1a0.71,0.71,0,0,0-.49.43,3,3,0,0,0,.26,1.21q2.93,5.93,5.92,11.84A2.53,2.53,0,0,0,342,366.41Zm-107.31.29a1.62,1.62,0,0,0,.35-0.27,21.23,21.23,0,0,0,1.25-2c1.37-2.83,2.68-5.7,4.05-8.53,0.47-1,1.07-1.87,1.57-2.83a1.4,1.4,0,0,0,.13-0.89,2.11,2.11,0,0,0-1.91-1.51c-1.77-.36-3.57-0.65-5.3-1.15a8.77,8.77,0,0,0-3.57-.28,1.15,1.15,0,0,0-1.09,1.29,5.19,5.19,0,0,0,.15,1.32c0.65,2.49,1.27,5,2,7.45S233.89,364.15,234.7,366.7Zm-0.44,2-0.92-3.18-3.77-13c-0.28-1-.84-1.13-1.5-0.38a16,16,0,0,0-1.74,2.44,2.19,2.19,0,0,0-.27,1.43,35.55,35.55,0,0,0,6,13.4,1.05,1.05,0,0,0,1.27.57A1.38,1.38,0,0,0,234.26,368.66ZM351,353.22a15.69,15.69,0,0,0-.83-1.4,4.54,4.54,0,0,0-.81-0.72c-0.82-.69-1.44-0.55-1.8.46s-0.79,2.28-1.08,3.45a87.47,87.47,0,0,1-3.17,10.64,34.05,34.05,0,0,0-1,3.39,0.77,0.77,0,0,0,.47,1,0.86,0.86,0,0,0,1.12-.35,32.58,32.58,0,0,0,2.58-4.2c1.34-3,2.48-6.12,3.66-9.2C350.48,355.34,350.68,354.35,351,353.22Zm-35.76,9.94-0.2-.05c-0.1.21-.21,0.42-0.28,0.64-0.74,2.19-1.56,4.36-2.19,6.58-1.16,4.14-2.49,8.26-2.7,12.61a3.67,3.67,0,0,0,1.13,3.2,12.36,12.36,0,0,0,.83-1.83c0.21-.79.26-1.63,0.41-2.44,0.84-4.6,1.72-9.19,2.51-13.79C315,366.46,315.09,364.8,315.25,363.16ZM226,353.91a14.59,14.59,0,0,0,2.63-4,1.19,1.19,0,0,0-.31-1.59,16.39,16.39,0,0,0-2.16-1.32,2,2,0,0,0-2.17.2,0.74,0.74,0,0,0-.22.62c0.2,0.8.46,1.58,0.69,2.38A11.7,11.7,0,0,0,226,353.91Zm80.74-138h0c0,0.14,0,.28,0,0.42,0,0.9.25,1,1.12,0.79,0.65-.19,1.33-0.3,2-0.46a6.31,6.31,0,0,0,1-.31,1.37,1.37,0,0,0,.87-1.39,1.12,1.12,0,0,0-1-1c-0.63-.14-1.27-0.21-1.9-0.29-1.59-.21-2.11.25-2.13,1.85C306.71,215.6,306.71,215.74,306.71,215.88Zm21.84,4.92a9.17,9.17,0,0,0,5-1.94,1.9,1.9,0,0,0-2.11-1c-0.6.09-1.19,0.22-1.78,0.34a1.09,1.09,0,0,0-.93.92C328.63,219.63,328.6,220.19,328.55,220.8Zm24.71,127.89a1.6,1.6,0,0,0-.85-1.36,1.62,1.62,0,0,0-.86.3,4.13,4.13,0,0,0-.59.3,1.73,1.73,0,0,0-1.12,1.38,2.73,2.73,0,0,0,1.35,2.33,0.67,0.67,0,0,0,.56-0.24c0.39-.55.75-1.14,1.09-1.73A9.52,9.52,0,0,0,353.26,348.68Z" transform="translate(-87.09 -189.73)"/><path class="cls-7" d="M273,262.84a19.89,19.89,0,0,0,1.84-3.09c1.38-3.63,2.62-7.32,3.91-11q0.5-1.42.94-2.87c0.17-.58.28-1.17,0.43-1.76a3.68,3.68,0,0,1,2.17-2.5,15.85,15.85,0,0,1-.25,1.87,86.15,86.15,0,0,1-3.32,10c-2.6,6.54-5.12,13.12-7.71,19.66-0.9,2.25-1.93,4.45-2.9,6.68-1.45,3.31-2.89,6.62-4.36,9.91-0.73,1.63-1.51,3.23-2.28,4.84-1.95,4-3.88,8.07-5.87,12.07-1.15,2.3-2.42,4.53-3.61,6.8a14.31,14.31,0,0,0-.59,1.48l0.22,0.12c0.32-.48.69-0.95,1-1.46,1.78-3.37,3.58-6.73,5.3-10.13q2.21-4.38,4.26-8.84c2-4.33,4-8.68,5.85-13.06,1.2-2.8,2.21-5.68,3.37-8.5,1-2.45,2.17-4.84,3.14-7.31,1.64-4.13,3.15-8.31,4.77-12.45a88.27,88.27,0,0,0,3.36-9c0.31-1.17.61-2.34,0.92-3.5,0-.15.09-0.3,0.15-0.53a3.22,3.22,0,0,1,1,2.18,5.26,5.26,0,0,1,0,1.08,43.62,43.62,0,0,1-2,7.79c-1,3.11-1.91,6.24-2.93,9.34-0.38,1.15-1.05,2.2-1.42,3.35-1.55,4.85-3,9.73-4.56,14.58-0.91,2.8-2,5.54-3,8.32-1.13,3.31-2.11,6.68-3.29,10-1.82,5.11-3.68,10.22-5.65,15.28-1.49,3.82-3.08,7.61-4.81,11.32-1.62,3.46-3.51,6.8-5.26,10.21-0.82,1.61-1.58,3.25-2.37,4.88l0.17,0.1c0.29-.49.6-1,0.87-1.48,1.27-2.35,2.6-4.67,3.77-7.07,2.12-4.37,4.26-8.75,6.17-13.22q3.11-7.3,5.77-14.78c2.48-6.93,4.8-13.92,7.16-20.89,1.06-3.15,2.05-6.32,3.08-9.48,1.24-3.78,2.46-7.57,3.73-11.34s2.56-7.37,3.78-11.08c0.54-1.63.91-3.32,1.36-5,0.05-.19.13-0.38,0.21-0.62a2.45,2.45,0,0,1,1.17,2,6,6,0,0,1-.27,2.66,27.65,27.65,0,0,0-1.2,6c-0.24,1.69-.27,3.4-0.51,5.09-0.2,1.44-.56,2.85-0.86,4.28l-1.91,9.19-0.53,2.53a2.83,2.83,0,0,0,1-1.94c0.75-3.67,1.49-7.35,2.17-11,0.36-1.95.55-3.92,0.89-5.87,0.38-2.17.85-4.32,1.27-6.49,0.13-.65.23-1.3,0.31-2a1.09,1.09,0,0,1,.91-1,1.47,1.47,0,0,0,.42-0.28l0.62-.42a2.5,2.5,0,0,1,.39.7c0.16,0.89.26,1.79,0.39,2.69q0.35,2.33.73,4.65a3.42,3.42,0,0,0,.16.5l0.16,0c-0.06-1-.08-1.93-0.17-2.89-0.2-2.2-.45-4.4-0.65-6.61a1.78,1.78,0,0,1,.22-0.87c1.4,1.84,1.11,4.24,2.07,6.35a6.59,6.59,0,0,0-.08-3.24c-0.2-1.21-.35-2.42-0.55-3.63a0.71,0.71,0,0,0-.3-0.51,1,1,0,0,1-.68-1.21,3.27,3.27,0,0,0,0-.49,1.62,1.62,0,0,0-1.16,1c-0.32.62-.55,1.3-0.87,1.92a6.5,6.5,0,0,1-.77,1L286,242.39c-0.44-.81-0.85-1.65-1.32-2.44s-0.81-.8-1.47-0.28-1.16,1.05-1.74,1.59a1.09,1.09,0,0,1-1.33.38l1.41-3.65c0.48-1.23,1-2.44,1.44-3.7a2.49,2.49,0,0,1,2.16-1.88c1.34-.19,2.69-0.43,4-0.56a2.77,2.77,0,0,1,2.69,1.41,14.28,14.28,0,0,1,1.94,4.48,36.94,36.94,0,0,0,1.21,3.57c0.09,0.26.16,0.52,0.26,0.82a1.7,1.7,0,0,1-1.53-.67c-0.32-.34-0.6-0.71-0.93-1a5,5,0,0,0-.73-0.48c0.22,1,.46,1.78.56,2.59,0.6,5,2.05,9.89,3.25,14.79,0.74,3,1.79,6,2.71,9,0.78,2.52,1.53,5.06,2.39,7.56a54.19,54.19,0,0,0,2.3,5.86c2,4.13,4.11,8.2,6.17,12.3,0.62,1.23,1.21,2.48,1.85,3.7a7.85,7.85,0,0,0,.73,1l0.15-.07c-0.16-.39-0.28-0.79-0.47-1.16-2.05-4.08-4.18-8.12-6.14-12.24-1.47-3.09-2.79-6.24-4-9.43-0.87-2.25-1.46-4.62-2.22-6.91-0.33-1-.84-2-1.17-3-0.4-1.19-.77-2.41-1.05-3.64-1.27-5.46-2.5-10.92-3.74-16.39a1.35,1.35,0,0,1-.09-0.59,0.92,0.92,0,0,1,.38-0.54,0.61,0.61,0,0,1,.57.13,3.08,3.08,0,0,1,.86,1.53,47.89,47.89,0,0,0,2.77,9c1.57,4.16,3.1,8.34,4.69,12.5a75.74,75.74,0,0,0,5.59,11.65,0.3,0.3,0,0,0,.26.14c-0.15-.41-0.26-0.83-0.44-1.22-1-2.05-1.88-4.12-2.94-6.13a73,73,0,0,1-3.67-9.62c-0.36-1-.69-2-1-3a0.87,0.87,0,0,1-.11-0.4,3.15,3.15,0,0,1,.28-0.59,1.42,1.42,0,0,1,.41.34q1.72,3.45,3.41,6.91c3.51,7.17,6.92,14.4,11,21.26,2.18,3.65,4.56,7.19,6.77,10.83,3.5,5.77,6.9,11.59,10.39,17.37a98.92,98.92,0,0,0,8.53,12.2c2.1,2.52,4.34,4.93,6.58,7.34,2.63,2.82,5.32,5.58,8,8.36,0.56,0.59,1.15,1.16,1.71,1.75a3,3,0,0,1,.36.48,0.34,0.34,0,0,1-.18.56c-0.66.29-1.29,0.65-2,.9a1.1,1.1,0,0,1-.85-0.05c-0.78-.48-1.53-1-2.28-1.56a20.28,20.28,0,0,0-1.81-1.22c0.77,1.46,2.45,2.1,3.18,3.76l-1.8.64c-0.47.16-.95,0.33-1.43,0.47a1.64,1.64,0,0,1-1.93-.46c-1.57-1.73-3.27-3.34-4.87-5.05-1.15-1.23-2.19-2.57-3.31-3.83-0.61-.69-1.29-1.33-1.95-2a0.54,0.54,0,0,0-.21-0.07l-0.14.12c0.33,0.42.63,0.86,1,1.27q3.58,4.08,7.17,8.14c0.36,0.41.8,0.75,1.14,1.17a2.67,2.67,0,0,1,.49.94,0.62,0.62,0,0,1-.53.88c-1.67.31-3.33,0.69-5,.95a67.36,67.36,0,0,0-8.73,1.65,27,27,0,0,1-4,.66c-1.67.22-3.35,0.44-5,.56-1.46.1-2.94,0.06-4.41,0.05a0.69,0.69,0,0,1-.49-0.33,102.72,102.72,0,0,1-6.15-13.35c-1.57-4.35-3.32-8.64-5-13-1.52-4-3.1-7.92-4.53-11.92-1-2.69-1.75-5.44-2.54-8.19-0.9-3.13-1.69-6.29-2.57-9.42-0.42-1.49-.92-3-1.39-4.44l-0.2,0a8.72,8.72,0,0,0,.16,1.17c1.14,4.23,2.25,8.46,3.47,12.67,0.84,2.9,1.74,5.78,2.76,8.62,1.92,5.35,3.87,10.7,5.94,16,1.82,4.66,3.84,9.25,5.75,13.88,0.49,1.18.88,2.41,1.37,3.59a1.55,1.55,0,0,1-.43,1.91,21.7,21.7,0,0,1-1.7-2q-8.56-12.83-17.07-25.7c-2.36-3.57-4.64-7.19-7.06-10.72a21.57,21.57,0,0,1-2.36-4,1.91,1.91,0,0,1-.14-0.69q0-12.26,0-24.52c0-3.64,0-7.28.06-10.92,0-1.08.29-2.16,0.34-3.24q0.16-3.87.2-7.74c0-2.2,0-4.39-.07-6.59,0-1.31,0-2.62,0-3.92a5.22,5.22,0,0,0-.28-1.12H288a9.8,9.8,0,0,0-.24,1.72c0.06,2,.23,4,0.29,6q0.09,3.27,0,6.53c0,2-.17,4-0.22,6-0.08,3.1.12,6.24-.26,9.31-0.57,4.67-.19,9.32-0.29,14s0,9.36,0,14v0.35c-1.69.7-2.34,2.37-3.4,3.69-4,5-7,10.62-10.69,15.83-4.3,6.14-8.44,12.39-12.66,18.59-0.07.11-.17,0.21-0.27,0.33a1.63,1.63,0,0,1,0-1.62c0.87-2.24,1.76-4.48,2.62-6.73,1.38-3.58,2.79-7.15,4.09-10.76s2.43-7.11,3.61-10.68c0.77-2.32,1.51-4.65,2.22-7,1.18-3.94,2.32-7.9,3.47-11.85s2.25-7.75,3.37-11.63a26.07,26.07,0,0,0,1.35-6.17,1.32,1.32,0,0,0-.11-0.64,6.15,6.15,0,0,0-.26.65c-1,3.84-2.07,7.68-3.12,11.51s-2.12,7.67-3.21,11.49c-0.6,2.1-1.29,4.18-1.92,6.28-1.18,3.88-2.38,7.76-3.51,11.65a71.27,71.27,0,0,1-3.12,8.44c-0.87,2-1.52,4.1-2.32,6.14-1.07,2.76-2.18,5.51-3.28,8.26-1,2.42-1.91,4.85-2.91,7.26-0.29.71-.71,1.36-1.07,2a0.72,0.72,0,0,1-.79.4,54.48,54.48,0,0,1-7.89-.92c-1-.23-2-0.4-3.07-0.54a1.17,1.17,0,0,1-.89-2c1-1.52,2.06-3,3.07-4.55,0.45-.68.84-1.4,1.26-2.1a0.33,0.33,0,0,0,0-.34c-0.44.61-.89,1.22-1.32,1.84-1.47,2.1-2.93,4.22-4.41,6.31a0.82,0.82,0,0,1-.63.29c-1.59-.18-3.19-0.35-4.76-0.63-1.23-.22-2.44-0.6-3.66-0.93a1.17,1.17,0,0,1-.84-1.84c0.55-.93,1.27-1.75,1.9-2.63q1.27-1.78,2.52-3.58a2.38,2.38,0,0,0,.2-0.47l-0.14-.1c-0.34.42-.7,0.83-1,1.26-1.38,1.77-2.7,3.59-4.14,5.31a2.35,2.35,0,0,1-2.74,1c-1.28-.45-2.59-0.81-3.88-1.21a0.44,0.44,0,0,1-.32-0.7c0.38-.7.77-1.39,1.17-2.08,0.22-.39.47-0.76,0.7-1.15l-0.16-.13c-0.65.66-1.27,1.38-2,2a3.08,3.08,0,0,1-1.55.83,4,4,0,0,1-3-1c-0.36-.32-0.11-0.54.12-0.79,2.51-2.7,5.07-5.37,7.51-8.14A153,153,0,0,0,238,321.14a352.82,352.82,0,0,0,27.14-45.43c3.5-7.09,6.4-14.44,9.42-21.74,0.79-1.91,1.59-3.81,2.44-5.69a5.46,5.46,0,0,1,.89-1.1l0.26,0.09a12.8,12.8,0,0,1-.36,2c-1,2.95-2.08,5.88-3.14,8.81-0.52,1.44-1,2.87-1.57,4.31a2.55,2.55,0,0,0-.08.47,1.83,1.83,0,0,0-.44.36,18.77,18.77,0,0,0-1.09,1.87c-2.54,5.34-5,10.72-7.59,16-2.14,4.39-4.39,8.74-6.65,13.07-1.28,2.46-2.68,4.86-4,7.28-1.18,2.1-2.39,4.19-3.55,6.3a11.22,11.22,0,0,0-.57,1.46,2,2,0,0,0,.63-0.68c1.34-2.27,2.68-4.54,4-6.82,1.44-2.49,3-4.94,4.27-7.5,2-4,3.94-8.06,5.92-12.09,2.46-5,4.95-10,7.38-15.08C272,265.71,272.45,264.26,273,262.84ZM313.2,314l0.2-.09a3.41,3.41,0,0,0-.19-0.63c-1.76-3.37-3.58-6.71-5.28-10.1-1-2-1.81-4-2.67-6.09-1.23-2.93-2.43-5.87-3.64-8.81-0.59-1.42-1.26-2.82-1.76-4.27s-0.7-3.24-1.52-4.72a1.77,1.77,0,0,1-.12-0.76,15,15,0,0,0-.9-4.41,31.44,31.44,0,0,1-1.11-3.5c-0.78-3.47-1.47-7-2.2-10.44-0.25-1.18-.51-2.35-0.76-3.53l-0.21,0c0,0.37,0,.74,0,1.11a9.94,9.94,0,0,0,.17,1.07c0.64,3.37,1.2,6.76,2,10.11,0.65,2.9,1.45,5.76,2.31,8.61,1,3.45,2.08,6.9,3.35,10.26,1.4,3.74,3,7.41,4.6,11.08a119.72,119.72,0,0,0,6.45,13C312.28,312.58,312.75,313.26,313.2,314Zm-16.3-24,0.2,0c0-.54-0.06-1.08-0.15-1.61-0.28-1.7-.57-3.4-0.89-5.09q-0.81-4.31-1.66-8.62c-0.39-2-.88-4-1.23-5.94-0.5-2.88-.91-5.78-1.38-8.67-0.12-.73-0.35-1.45-0.54-2.17l-0.23,0a3.46,3.46,0,0,0-.09.88c0.25,1.61.52,3.21,0.8,4.81q0.75,4.39,1.51,8.77c0.39,2.25.77,4.51,1.22,6.75,0.5,2.53,1,5.06,1.6,7.58C296.29,287.7,296.61,288.8,296.9,289.92Zm40.17,58.24,0.16-.18a3.27,3.27,0,0,0-1.22-1.71,7,7,0,0,1-1.05-.88c-1.08-1.23-2.16-2.47-3.16-3.76-2.19-2.82-4.41-5.62-6.46-8.55-2.33-3.33-4.5-6.78-6.72-10.19-0.75-1.15-1.47-2.31-2.2-3.47l-0.23.11a7,7,0,0,0,.47,1.16c1.39,2.24,2.77,4.48,4.23,6.67,1.85,2.79,3.73,5.57,5.68,8.29,1.59,2.22,3.31,4.36,5,6.51,1.06,1.35,2.14,2.69,3.28,4A27.28,27.28,0,0,0,337.06,348.15ZM341.25,332l0.22-.14c-0.12-.22-0.22-0.45-0.35-0.66-0.79-1.24-1.58-2.49-2.4-3.72-3.56-5.38-7.07-10.78-10.12-16.47a23.44,23.44,0,0,0-1.87-2.59l-0.19.12a2.65,2.65,0,0,0,.16.41c1.19,2,2.37,4,3.57,6,2.78,4.54,5.56,9.09,8.39,13.6C339.43,329.76,340.39,330.87,341.25,332ZM251,315.87c-0.68,1.11-1.41,2.21-2,3.35-0.94,1.7-1.73,3.49-2.72,5.16-2.65,4.47-5.38,8.91-8.08,13.36-0.09.15-.16,0.32-0.25,0.48C239.62,336.93,251,317.61,251,315.87ZM336.69,334a98,98,0,0,0-8.18-10.51A39.43,39.43,0,0,0,336.69,334Zm-98.08-8.14-0.23-.16c-0.58.7-1.2,1.37-1.73,2.1-1.19,1.63-2.33,3.3-3.52,4.93-0.94,1.29-2,2.54-2.89,3.83a11.23,11.23,0,0,0-.76,1.41l0.14,0.08a3.32,3.32,0,0,0,.39-0.36c1-1.21,1.92-2.41,2.84-3.64q2.22-3,4.38-6C237.74,327.32,238.16,326.56,238.62,325.83Zm79-20c0.1,1,6.3,11.36,7,11.73A77.31,77.31,0,0,0,317.59,305.83ZM315,291a79.87,79.87,0,0,0-5.54-10.62A36.93,36.93,0,0,0,315,291Zm8.36,12.72a49.81,49.81,0,0,0-6.27-9.24C317.1,295.1,322.67,303.24,323.39,303.7ZM349,341.08l0.11-.1-5.71-6.43-0.11.1A21.19,21.19,0,0,0,349,341.08ZM241.89,320.9c1.37-1.13,3.86-5.26,3.8-6.27A32.63,32.63,0,0,0,241.89,320.9Zm74.32-17.17c0-1-2.58-5.2-3.37-5.57A18.72,18.72,0,0,0,316.21,303.73Z" transform="translate(-87.09 -189.73)"/><path class="cls-7" d="M197,357.15a63.23,63.23,0,0,1-8.14,11.93,47.12,47.12,0,0,1-11,9.31,56.72,56.72,0,0,1-14.28,6.15,64.81,64.81,0,0,1-17.72,2.26,62.51,62.51,0,0,1-23.6-4.34,54.42,54.42,0,0,1-30.83-30.92,67.31,67.31,0,0,1,0-47.55,54.42,54.42,0,0,1,30.83-30.92,62.49,62.49,0,0,1,23.6-4.34q18.62,0,30.2,6.42A46.86,46.86,0,0,1,194.5,294l-24.59,22.78q-7.05-16.09-23.14-16.09a25,25,0,0,0-10.4,2.08,25.39,25.39,0,0,0-8,5.7,24.4,24.4,0,0,0-5.24,8.59,31.24,31.24,0,0,0-1.81,10.76,30.46,30.46,0,0,0,1.81,10.67,25.24,25.24,0,0,0,5.15,8.5,24,24,0,0,0,8,5.7,25.63,25.63,0,0,0,10.49,2.08q9.94,0,15.91-4.61a26.64,26.64,0,0,0,8.68-11.48Z" transform="translate(-87.09 -189.73)"/><path class="cls-4" d="M595.17,391.65" transform="translate(-87.09 -189.73)"/><path class="cls-14" d="M99.48,386.45" transform="translate(-87.09 -189.73)"/><path class="cls-14" d="M104.21,386.27" transform="translate(-87.09 -189.73)"/><path class="cls-15" d="M331.26,387.65" transform="translate(-87.09 -189.73)"/><path class="cls-15" d="M320,354.83" transform="translate(-87.09 -189.73)"/><path class="cls-15" d="M249.66,386.36" transform="translate(-87.09 -189.73)"/><path class="cls-15" d="M255.14,353.16" transform="translate(-87.09 -189.73)"/><path class="cls-5" d="M311,385.88l-0.69-1.18a99.13,99.13,0,0,1-9.63-20.6A269,269,0,0,1,290,327.43c-0.72-3.31-1.31-6.65-1.94-10-1.14-6-1.3-7.55-.78-4.46,0-.21-0.22-5-0.09-5.33a4.29,4.29,0,0,1,.45.62c1.39,2.84,25.8,39.38,26.25,39.75,0.6,0.5,2.12,3.3,2.69,3.71a1.41,1.41,0,0,1,.47,2.09c-0.3.49-3.05,17.66-4.06,24.07-0.26,1.67-.84,3.28-1.09,4.95A8,8,0,0,1,311,385.88Z" transform="translate(-87.09 -189.73)"/><polygon class="cls-13" points="111.82 172.77 114.41 168.27 112.91 168.35 111.24 169.69 110.74 171.85 110.99 172.77 111.82 172.77"/><path class="cls-16" d="M200.38,389.5a2.79,2.79,0,0,0-2.5.38c-1.25.88-2.25,1.13-2,2.38s-0.12,3.38,1.25,3.63,3.63,0.13,3.88-1.37,0.88-3.12.63-3.87,1.25-2.25,1.25-2.25l-1.12-.5Z" transform="translate(-87.09 -189.73)"/><polygon class="cls-16" points="270.97 155.46 285.61 164.48 285.61 166.1 269.91 155.77 270.97 155.46"/><polygon class="cls-16" points="130.53 155.77 111.91 170.39 111.28 172.27 131.41 156.52 130.53 155.77"/><path class="cls-16" d="M230.83,349c-0.91.13-7.71,10.88-8.52,12.3-4.18,5.45-7,9.37-10.38,14.1-3,4.11-5.92,8.24-8.68,12.49a2.24,2.24,0,0,1-2.11,1.18l0.42-.78A129.21,129.21,0,0,1,212,373.1c1.85-2.4,3.75-4.75,5.51-7.21s3.29-4.93,4.92-7.41c0.51-.77,6-9,6.55-9.81m4.25,25.17c-0.82,1.82-3.32,7.82-4.08,9.67-0.61,1.49-7,15.47-9,21.33a3.76,3.76,0,0,0-.09,1.71,9,9,0,0,1,.07,1.21,3.73,3.73,0,0,1-3.7,3.43,1.4,1.4,0,0,1-1.26-.89,3.94,3.94,0,0,1,1-4.58,4,4,0,0,1,1.48-.89,3.29,3.29,0,0,0,2.23-1.89c0.82-1.9,1.57-3.83,2.36-5.75s1.48-3.57,2.23-5.36c1.65-3.94,3.32-7.87,4.95-11.81,1-2.51,1.69-4.16,2.68-6.7,0.07-.19,10.37-22,10.25-22.17,0,0,1.83-.58,1,1C239.92,358.65,234,373.19,233.25,373.83Zm22.92-20.5c-0.82,4.13-9.91,49-10.2,50.41-0.65,3.16-1.36,6.3-2,9.46a16.44,16.44,0,0,0-.25,2.95c2.06,1.3,2.1,3.15,1.35,5.24a1.34,1.34,0,0,1-1.19.87,5,5,0,0,1-5.25-3.39,1.84,1.84,0,0,1,1.91-2.72,4,4,0,0,0,1-.05,1.68,1.68,0,0,0,1.42-1.52c0.34-2,.89-4,1.26-6,0.41-3.55,10.32-51.88,10.92-55.39M321,354.5c-0.31.18,9.72,32.18,10.63,35,1.22,3.8,2.53,8.51,3.81,12.29,1,3.11,2.29,6.15,3.51,9.2a20,20,0,0,0,1.36,2.56,3.09,3.09,0,0,0,1.93,1.63,1.33,1.33,0,0,1,1.07,1.43,16.09,16.09,0,0,1-.28,2.33,1.09,1.09,0,0,1-1.38.86,0.85,0.85,0,0,0-1,.36c-0.63.85-1.26,0.76-1.73-.21a4,4,0,0,1,.49-4.48c-1-2.84-2.23-5.62-3.2-8.48-2.7-8-14-44.15-16.68-52.12M333.63,352c0.61,2.15,12.14,23.88,13.21,25.83,3.83,7,7.78,13.9,12.06,20.62,0.84,1.32,1.76,2.6,2.66,3.89a1,1,0,0,0,1.44.39c1.12-.63,2.43-0.27,3.17,1.7a1.66,1.66,0,0,1,.06,1,7.33,7.33,0,0,1-1.2,2.55,2.32,2.32,0,0,1-3.26.19,1.16,1.16,0,0,1-.17-0.55c-0.34-1.72-.57-3.47-1.07-5.15a5.86,5.86,0,0,0-1.17-2.13,57.63,57.63,0,0,1-5.87-8.6c-3.24-5.6-6.42-11.24-9.66-16.84-0.31-.54-11-22-11.44-22.5m15.88-3.75c6.63,8.63,27.8,31.83,31.24,35.29a10.39,10.39,0,0,0,.95.85,2.81,2.81,0,0,0,1.91.61,5.4,5.4,0,0,1,3.08.6,1.42,1.42,0,0,1,.42.46c0.69,1.32.16,2.46-.26,3.59a1.88,1.88,0,0,1-1.6,1.31,19.88,19.88,0,0,1-2.88,0c-0.36,0-.66-0.27-0.38-0.66,0.88-1.21.34-2.37-.26-3.39a10.45,10.45,0,0,0-1.25-1.73c-1.61-1.77-3.35-3.36-4.83-5.25-1.09-1.39-2.53-2.49-3.74-3.79-3.6-3.88-7.37-8.26-10.89-12.21a86.82,86.82,0,0,1-6.51-7.86c-0.42-.63-5.36-6.77-6-7.51" transform="translate(-87.09 -189.73)"/></svg>