<svg id="Layer_3" data-name="Layer 3" xmlns="http://www.w3.org/2000/svg" viewBox="0 0 636.69 30.33"><defs><style>.cls-1{fill:#aac60b;}.cls-2,.cls-3,.cls-4{fill:none;stroke-miterlimit:10;}.cls-2,.cls-4{stroke:#777c0b;}.cls-2{stroke-width:0.1px;}.cls-3{stroke:#636247;stroke-width:0.13px;}.cls-4{stroke-width:0.09px;}</style></defs><title>Campo 4B3</title><path class="cls-1" d="M371.39,379.07l-0.06,2.5,39.69-.44-0.25-2.5v-0.44a11.62,11.62,0,0,0-4.12-1.18,9.24,9.24,0,0,1-2.65-.29l-2.36.88v-3.24l-3.24,3.83-2.94-6.77v7.36l-2.06-1.18-1.77,1.18-1.18-2.65-1.77,2.36s-0.67-3-.29-4.12a35.17,35.17,0,0,1,2.94-4.71,8.7,8.7,0,0,0-3.35,2.58c-1.31,1.71-2.83,6.25-2.83,6.25l-0.88-1.18-0.88,1.77-1.47-2.36-1.77,2.06-0.88-2.36-1.47,2.36-5.3-4.71,2.36,5.59-3.53-1.18Z" transform="translate(-106 -367.67)"/><path class="cls-2" d="M371.31,378.49l3.53,1.18-2.36-5.59,5.3,4.71,1.47-2.36,0.88,2.36,1.77-2.06,1.47,2.36,0.88-1.77,0.88,1.18s1.52-4.55,2.83-6.25a8.7,8.7,0,0,1,3.35-2.58,35.17,35.17,0,0,0-2.94,4.71c-0.38,1.14.29,4.12,0.29,4.12l1.77-2.36,1.18,2.65,1.77-1.18,2.06,1.18v-7.36l2.94,6.77,3.24-3.83v3.24l2.36-.88a9.24,9.24,0,0,0,2.65.29,11.62,11.62,0,0,1,4.12,1.18" transform="translate(-106 -367.67)"/><path class="cls-1" d="M463,380.5l-0.5,8.5L579,391l-0.5-9,1.57-1.49s-2.25-1.5-3.75-2.25-2.63,1.5-2.63,1.5l0.38-3.38-4.5,4.88-3.38-4.88-1.13,4.5-2.25-3.75-6.38,3.38s0.75-2.25,1.13-3.75,3.38-4.5,3.38-4.5-3.75,1.5-4.88,1.88-3.38,5.26-3.38,5.26l-1.88-1.13-2.63-.75-1.88.75-2.63-2.63L541.78,379l-1.5-4.88-1.5,6-1.88-5.63c-0.75-2.25,2.25-7.51,1.13-6.76S533.14,379,533.14,379l-3-4.88-3,4.88-5.26-5.63-3,5.26-3-7.51-0.38,3.38-8.26,3v-3l-3.75,3.38v-6l-4.13,6.38-2.63-3-3,1.88-1.5-3-4.5,1.5s3-4.5,1.88-4.5S481,377.5,481,377.5l-3.38-4.88L475.33,376l-2.63-1.5-2.25,1.5-4.88-3,2.25,4.13-5.63-1.5Z" transform="translate(-106 -367.67)"/><path class="cls-3" d="M526.76,379.37l3-4.88,3,4.88s3.75-10.51,4.88-11.26-1.88,4.5-1.13,6.76l1.88,5.63,1.5-6,1.5,4.88,1.88-3.38,2.63,2.63,1.88-.75,2.63,0.75,1.88,1.13s2.25-4.88,3.38-5.26,4.88-1.88,4.88-1.88-3,3-3.38,4.5-1.13,3.75-1.13,3.75l6.38-3.38,2.25,3.75,1.13-4.5,3.38,4.88,4.5-4.88-0.38,3.38s1.13-2.25,2.63-1.5,3.75,2.25,3.75,2.25" transform="translate(-106 -367.67)"/><path class="cls-3" d="M461.81,376l5.63,1.5-2.25-4.13,4.88,3,2.25-1.5,2.63,1.5,2.25-3.38,3.38,4.88s7.51-6.38,8.63-6.38-1.88,4.5-1.88,4.5l4.5-1.5,1.5,3,3-1.88,2.63,3,4.13-6.38v6l3.75-3.38v3" transform="translate(-106 -367.67)"/><path class="cls-1" d="M665.11,384.75l0.5,12,75.5,1v-8.5l1.57-2.57-8.19-.53-1.59-2.38-4.49,2.38,0.26-1.85-4,1.06,1.85-3.43-5.28,3.7L720,381.14l-2.38,4.76s-0.26-2.38-.26-3.17-3.17-4-3.17-4a23.91,23.91,0,0,1,1.32,4.49,14.35,14.35,0,0,1-.53,2.91L712.57,384l-1.06,2.11L708.08,383l-3.43,4-3.7-3.17-1.32,2.38-4-1.59-1.85,1.06-3.7-2.38-0.79-2.64L688.26,383l-0.79-4.23-2.11,5.55-2.91-7.66-1.32,2.91s-0.79-4-1.06-5.55a44.86,44.86,0,0,1,0-6.08,30.65,30.65,0,0,0-2.38,5c-0.53,1.85.79,6.34,0.79,6.34l-2.11-2.64v4l-1.85.26-2.91,1.06-2.11-2.11,1.06,2.91L665,381.4Z" transform="translate(-106 -367.67)"/><path class="cls-1" d="M106.67,390L106,398l63.33-4.33,10.67-7,0.82-1.33-3-2.71-1.08,1.08-1.9-1.36-1.9,3L167,381v4.07L163.47,384l-3,.54s2.71-3.25,1.36-3.25-5.69,4.34-6.51,4.07-1.63-3.25-1.63-3.25l-0.81,4.61-6-5.42-0.81,3.8-1.9-6.51s-1.08,2.17-1.63,3a21.45,21.45,0,0,0-1.36,3.52L138,384l-2.17,2.71-1.36-3.52-1.9,2.71a23.84,23.84,0,0,1-.54-3.8c0-1.36,3-4.07,3-4.07s-3.25,1.63-4.07,2.71-2.17,3.52-2.17,3.52l-0.81-2.17-2.17,3-1.63-3-1.9-4.07L122,381.27l0.54,4.07-2.44-1.08-2.71.81-2.44.81-3.25-2.17-2.17,2.44-2.71.54Z" transform="translate(-106 -367.67)"/><path class="cls-4" d="M106.8,385.69l2.71-.54,2.17-2.44,3.25,2.17,2.44-.81,2.71-.81,2.44,1.08L122,380.27l0.27-3.25,1.9,4.07,1.63,3,2.17-3,0.81,2.17s1.36-2.44,2.17-3.52S135,377,135,377s-3,2.71-3,4.07a23.84,23.84,0,0,0,.54,3.8l1.9-2.71,1.36,3.52L138,383l3.25,1.08a21.45,21.45,0,0,1,1.36-3.52c0.54-.81,1.63-3,1.63-3l1.9,6.51,0.81-3.8,6,5.42,0.81-4.61s0.81,3,1.63,3.25,5.15-4.07,6.51-4.07-1.36,3.25-1.36,3.25l3-.54,3.52,1.08V380l6,4.34,1.9-3,1.9,1.36,1.08-1.08,3,2.71" transform="translate(-106 -367.67)"/></svg>