<svg id="Layer_1" data-name="Layer 1" xmlns="http://www.w3.org/2000/svg" viewBox="0 0 769.37 144.51"><defs><style>.cls-1{fill:#aac60b;}</style></defs><title>hills1</title><path class="cls-1" d="M166.79,312.76c-31.12,6-64.79,20-89.07,32.63-19.71,10.28-34.49,20.56-36,52.94S99.67,448.67,125,451s62.16,2.52,76.58,1.76,43.25-5,54.64-7c6.49-1.13,86.1-17,93.23-18.74,7.92-1.89,70.71-15.32,77.58-16.47,8.26-1.39,65.64-8.89,94.42-11.34,35.21-3,55.73,1.2,73.81,2.78,4.06,0.36,46.23,4.77,53.25,5.25,8.06,0.55,73.33,4,82.32,3.8,10.84-.23,42.18-4,54.86-10,2.67-1.26,12.65-5.34,22.05-19.47,5.91-8.88,3.51-23.17-5-30.09-1.43-1.16-4.1-6.45-17.36-14.24-6.76-4-33.32-11.67-39.15-12.71-7.43-1.33-31.34-3.32-35.79-3.33-9.28,0-51,4.25-62.52,6.43-11.28,2.14-22.52,4.53-33.73,7-8.61,1.9-37.45,9.32-43.33,10.8C559.41,348.3,514,359,488.33,358.67c-23.37-.3-93.51-16.09-103.33-18.33-8.81-2-115.07-26.27-127.14-27.59C239,310.67,208.67,304.67,166.79,312.76Z" transform="translate(-41.64 -308.65)"/></svg>