<svg id="Layer_1" data-name="Layer 1" xmlns="http://www.w3.org/2000/svg" viewBox="0 0 790.29 126.42"><defs><style>.cls-1{fill:#aac60b;}.cls-2{fill:#e1ef59;}</style></defs><title>hills2</title><path class="cls-1" d="M367.36,326.44c-9.85-1.26-19.67-2.74-29.46-4.33-8.54-1.39-17-3-25.53-4.64q-10.14-1.92-20.23-4c-5.42-1.14-28.1-6.5-34-8.08-4.62-1.24-9.23-2.55-13.67-4.19a28.46,28.46,0,0,1-6.64-3.86c-2.63-1.9-2.41-4.82.24-6.63A49,49,0,0,1,252.66,284c3.55-1,7-2.22,10.57-3.21,6.14-1.7,12.29-3.39,18.5-4.92,11.5-2.83,23.1-5.42,34.56-8.35,10-2.56,47.08-9.51,55.45-10.92,7.44-1.25,35.46-5.33,42-6.16,5.83-.74,11.68-1.4,17.5-2.17,3-.39,60.84-3.77,69.73-3.5,10.07,0.31,69.42-.27,123.71,16.81,3.54,1.18,16.13,6.18,19,7.32,4.46,1.79,8.87,3.67,13.33,5.45A90.67,90.67,0,0,1,669.15,280c2.93,1.71,5.76,3.4,7.54,6.13,1.22,1.87,1.65,3.52.57,5.67s-9.83,8.8-12.61,10.23c-8.36,4.3-17.75,6.51-27.07,8.78-9.75,2.38-19.56,4.62-29.45,6.61-8.16,1.64-16.42,3-24.7,4.18-10.83,1.55-21.71,2.89-32.61,4.15-7,.81-14.09,1.32-21.14,1.9-8.9.72-17.79,1.48-26.71,2-6.49.39-13,.47-19.52,0.63s-47.15.36-55.3,0.21c-7.56-.13-29.94-1.15-33.57-1.32C394.58,329.26,376.4,327.6,367.36,326.44Z" transform="translate(-37.69 -244.71)"/><path class="cls-2" d="M141.43,273.49c7.56,1.1,15.08,2.42,22.59,3.82,6.77,1.26,13.5,2.8,20.25,4.15,3.2,0.64,22.64,4,29.17,4.94,6.82,1,13.68,1.8,20.52,2.66,7.14,0.9,14.27,1.83,21.42,2.62,4.85,0.53,9.74.83,14.6,1.25,1.9,0.17,11.06,1.23,13.76,1.48s5.14,0.3,7.7.59c6.34,0.7,12.66,1.5,19,2.2,7.52,0.84,15,1.67,22.57,2.43,5.9,0.59,11.82,1.06,17.73,1.6,4.58,0.42,9.15.84,13.73,1.31,8.34,0.85,16.68,1.74,25,2.6,8.78,0.91,17.56,1.94,26.35,2.66,7.16,0.59,14.35.82,21.54,1.15,3.48,0.16,23.06.15,29.35-.15,6.59-.31,13.18-0.75,19.74-1.43,6.85-.71,13.68-1.7,20.5-2.67,7.19-1,32.58-5.55,38.07-6.8,8-1.8,15.88-3.69,23.82-5.56,10.46-2.46,20.9-5,31.37-7.39,13.44-3.08,26.93-5.91,40.61-7.68,8.74-1.13,17.48-2.41,26.26-3.14,8-.67,36.53-1.07,42.65-0.32,11.7,1.43,23.51,1.94,35.1,4.3,5.66,1.15,24.54,5,28.29,5.83,5.51,1.24,26.43,9.9,30.94,13.49,2.5,2,5.08,3.84,7.63,5.76a45.55,45.55,0,0,1,9.47,9.66,40.82,40.82,0,0,1,6,13.78c0.38,1.43,1.14,7.54.63,9.15-0.42,1.31-2.69,8.78-4.59,10.68-4.82,4.8-10.89,7-17.24,8.66-1.21.32-4.36-.1-4.73-0.1a80.68,80.68,0,0,1-17.2-1.69c-4-.8-8-1.64-12-2.43-1.67-.33-13.74-1.88-18-2.58-6.56-1.07-13.18-.45-19.76-0.8-4.37-.23-28.82.5-36.66,1-6.73.45-13.46,0.9-20.16,1.66-8.76,1-17.49,2.31-26.23,3.49-5.29.71-28.31,4.06-34.53,5.08-8.26,1.36-16.51,2.82-24.77,4.19-7.53,1.25-33.79,4.93-39.41,5.37-11.45.89-22.91,1.81-34.38,2.4-8.07.41-16.17,0.42-24.25,0.35a239.43,239.43,0,0,1-28.15-2.37c-11.86-1.51-23.58-3.87-35.23-6.47-12.66-2.83-25.2-6.16-37.75-9.47-6.73-1.78-13.36-3.94-20-6-5.24-1.61-10.42-3.44-15.69-5-12.48-3.58-25.17-6.22-37.95-8.55A204,204,0,0,0,286.37,330c-8.53-.17-17.06-0.34-25.58-0.2-5.55.09-42.92,3.59-55.88,6.12-13.6,2.65-27.12,5.75-40.68,8.61-7.69,1.62-15.39,3.16-23.08,4.73l-20.25,4.13c-10.8,2.21-21.66,3.47-32.7,2.49a125.25,125.25,0,0,1-21.09-3.19c-8.21-2.18-16.64-6.29-24.52-19.74-3.41-5.44-4.52-11.51-4.86-17.82a37.2,37.2,0,0,1,4.05-18.93,46,46,0,0,1,8.73-12,49.21,49.21,0,0,1,15.36-10,43.4,43.4,0,0,1,9-3.2,73.12,73.12,0,0,1,12.54-1.45C94.95,269.46,131,272,141.43,273.49Z" transform="translate(-37.69 -244.71)"/></svg>