<svg id="Layer_1" data-name="Layer 1" xmlns="http://www.w3.org/2000/svg" viewBox="0 0 375.06 52.35"><defs><style>.cls-1{fill:#3a3a2b;}.cls-2{fill:#ff6902;}</style></defs><title>sancho</title><path class="cls-1" d="M505.24,423h9.65l18.35,21.2V423h16.3v50h-9.73l-18.27-21.12V473h-16.3V423Z" transform="translate(-376.01 -421.4)"/><path class="cls-1" d="M418.56,432.67l-11.92,4.51q-1.82-4.87-5.38-4.87-6,0-6,3.49,0,2.62,3.34,3.16t10,1.78a13.82,13.82,0,0,1,8.22,5.09,14.89,14.89,0,0,1,2.91,9.23,16.42,16.42,0,0,1-6.47,13.6q-5.89,4.73-14.61,4.73-15.2,0-19.63-11.78l12-4.51q2.76,5.09,7.2,5.09,5.23,0,5.23-3.64a4.07,4.07,0,0,0-.84-2.4,3.52,3.52,0,0,0-2-1.45,32.28,32.28,0,0,0-4.51-.65,18.24,18.24,0,0,1-11.63-4.58,15,15,0,0,1-4.73-11.56q0-8.29,6.11-12.65,5.38-3.85,14.1-3.85Q414.27,421.4,418.56,432.67Z" transform="translate(-376.01 -421.4)"/><path class="cls-1" d="M450.68,466.26L448,472.36H429.6L458.9,422h1.6l29.3,50.38H471.4l-2.76-6.09h-18ZM464,455.83l-4.36-9.47-4.22,9.47H464Z" transform="translate(-376.01 -421.4)"/><path class="cls-1" d="M603.33,443.28q-2.11-6.11-9.23-6.11a9.51,9.51,0,0,0-7.12,3,10.59,10.59,0,0,0,0,14.58,9.46,9.46,0,0,0,7.12,3.05q6.83,0,9.23-6.11l15.56,4.14A22.64,22.64,0,0,1,609.44,469a27.32,27.32,0,0,1-15.7,4.44,26.34,26.34,0,0,1-18.83-7.56,25.31,25.31,0,0,1,0-36.79,26.34,26.34,0,0,1,18.83-7.56,28.33,28.33,0,0,1,15.2,4,22.83,22.83,0,0,1,9.6,12.29Z" transform="translate(-376.01 -421.4)"/><path class="cls-1" d="M634.26,422.63h16.87v16.72h12.58V422.63h16.87v49.22H663.71V455.06H651.13v16.79H634.26V422.63Z" transform="translate(-376.01 -421.4)"/><path class="cls-1" d="M723.81,473.75a27.33,27.33,0,0,1-19.19-7.45,25.3,25.3,0,0,1,.07-37.12,28.77,28.77,0,0,1,38.32-.07,25.62,25.62,0,0,1,.07,37.26A27.41,27.41,0,0,1,723.81,473.75Zm-10.4-26a9.83,9.83,0,0,0,3.09,7.31,10.28,10.28,0,0,0,7.45,3A9.44,9.44,0,0,0,731,455a10.49,10.49,0,0,0,0-14.54,9.59,9.59,0,0,0-7.2-3,10.19,10.19,0,0,0-7.38,3A9.83,9.83,0,0,0,713.41,447.79Z" transform="translate(-376.01 -421.4)"/><path class="cls-2" d="M502.24,423h9.65l18.35,21.2V423h16.3v50h-9.73l-18.27-21.12V473h-16.3V423Z" transform="translate(-376.01 -421.4)"/><path class="cls-2" d="M415.56,432.67l-11.92,4.51q-1.82-4.87-5.38-4.87-6,0-6,3.49,0,2.62,3.34,3.16t10,1.78a13.82,13.82,0,0,1,8.22,5.09,14.89,14.89,0,0,1,2.91,9.23,16.42,16.42,0,0,1-6.47,13.6q-5.89,4.73-14.61,4.73-15.2,0-19.63-11.78l12-4.51q2.76,5.09,7.2,5.09,5.23,0,5.23-3.64a4.07,4.07,0,0,0-.84-2.4,3.52,3.52,0,0,0-2-1.45,32.28,32.28,0,0,0-4.51-.65,18.24,18.24,0,0,1-11.63-4.58,15,15,0,0,1-4.73-11.56q0-8.29,6.11-12.65,5.38-3.85,14.1-3.85Q411.27,421.4,415.56,432.67Z" transform="translate(-376.01 -421.4)"/><path class="cls-2" d="M447.68,466.26L445,472.36H426.6L455.9,422h1.6l29.3,50.38H468.4l-2.76-6.09h-18ZM461,455.83l-4.36-9.47-4.22,9.47H461Z" transform="translate(-376.01 -421.4)"/><path class="cls-2" d="M600.33,443.28q-2.11-6.11-9.23-6.11a9.51,9.51,0,0,0-7.12,3,10.59,10.59,0,0,0,0,14.58,9.46,9.46,0,0,0,7.12,3.05q6.83,0,9.23-6.11l15.56,4.14A22.64,22.64,0,0,1,606.44,469a27.32,27.32,0,0,1-15.7,4.44,26.34,26.34,0,0,1-18.83-7.56,25.31,25.31,0,0,1,0-36.79,26.34,26.34,0,0,1,18.83-7.56,28.33,28.33,0,0,1,15.2,4,22.83,22.83,0,0,1,9.6,12.29Z" transform="translate(-376.01 -421.4)"/><path class="cls-2" d="M631.26,422.63h16.87v16.72h12.58V422.63h16.87v49.22H660.71V455.06H648.13v16.79H631.26V422.63Z" transform="translate(-376.01 -421.4)"/><path class="cls-2" d="M720.81,473.75a27.33,27.33,0,0,1-19.19-7.45,25.3,25.3,0,0,1,.07-37.12,28.77,28.77,0,0,1,38.32-.07,25.62,25.62,0,0,1,.07,37.26A27.41,27.41,0,0,1,720.81,473.75Zm-10.4-26a9.83,9.83,0,0,0,3.09,7.31,10.28,10.28,0,0,0,7.45,3A9.44,9.44,0,0,0,728,455a10.49,10.49,0,0,0,0-14.54,9.59,9.59,0,0,0-7.2-3,10.19,10.19,0,0,0-7.38,3A9.83,9.83,0,0,0,710.41,447.79Z" transform="translate(-376.01 -421.4)"/></svg>