<svg id="Layer_1" data-name="Layer 1" xmlns="http://www.w3.org/2000/svg" viewBox="0 0 761.51 193.85"><defs><style>.cls-1{fill:#9afcfc;}.cls-2{fill:none;stroke:#662482;stroke-miterlimit:10;}</style></defs><title>sky</title><polygon class="cls-1" points="431.67 0.33 451.83 0.33 460.84 137.18 454.86 132.49 431.67 0.33"/><polygon class="cls-1" points="467.83 0.33 459.51 134.51 467.51 135.18 467.88 132.82 488.83 0.33 467.83 0.33"/><polygon class="cls-1" points="470.84 135.18 510.67 0 534 0.33 475.51 135.18 470.84 135.18"/><polygon class="cls-1" points="560.42 0.33 481.51 135.18 486.84 135.18 591.67 0.33 560.42 0.33"/><polygon class="cls-1" points="493.51 135.18 625.33 0.33 675.83 0.33 498.17 137.18 493.51 135.18"/><polygon class="cls-1" points="506.84 135.85 744 0.33 760.67 0.33 760.84 35.18 510.84 137.18 506.84 135.85"/><polygon class="cls-1" points="520.84 137.85 760.84 71.18 760.84 96.51 526.17 141.18 520.84 137.85"/><polygon class="cls-1" points="544.17 142.51 760.84 122.51 761.51 149.18 553.51 146.51 544.17 142.51"/><polygon class="cls-1" points="570.84 151.85 761.51 171.18 761.51 191.18 578.17 159.85 570.84 151.85"/><polygon class="cls-1" points="411.17 0.33 456.86 135.49 454.17 135.18 385 0.33 411.17 0.33"/><polygon class="cls-1" points="298.5 0.33 446.17 133.18 451.51 133.18 342.83 0.33 298.5 0.33"/><polygon class="cls-1" points="154.67 0.33 239.67 0.33 437.51 135.18 429.51 136.51 154.67 0.33"/><polygon class="cls-1" points="66.33 0.33 419.51 135.18 410.84 137.18 0.17 22.51 0 0.33 66.33 0.33"/><polygon class="cls-1" points="0.84 63.85 400.84 137.18 395.51 139.85 0.17 96.51 0.84 63.85"/><polygon class="cls-1" points="0.84 130.51 380.17 141.85 375.51 146.51 0.84 153.18 0.84 130.51"/><polygon class="cls-1" points="22.51 175.01 376.84 151.85 374.17 157.85 70.17 193.85 22.51 175.01"/><path class="cls-2" d="M671,182.36" transform="translate(-49.83 -132.67)"/></svg>