<svg id="Layer_1" data-name="Layer 1" xmlns="http://www.w3.org/2000/svg" viewBox="0 0 142.5 72.77"><defs><style>.cls-1{fill:#e1ef59;}.cls-2{fill:#8d9b07;}</style></defs><title>trees</title><path class="cls-1" d="M349.89,248.7c2.61,0.49,3.87.87,4.22,4.29h0.73a3.22,3.22,0,0,1,3.43,2.7c0.55,2-.33,3.24-1.61,4.46l-0.63.57a10.67,10.67,0,0,1,1.08,1.81,2.4,2.4,0,0,1,0,1.55,3.39,3.39,0,0,1-3.44,2.18,2.16,2.16,0,0,0-2.11,1,0.88,0.88,0,0,1-.54.38,19.22,19.22,0,0,1-2.7.26,4.75,4.75,0,0,1-1.41-.52l-0.76,1c0.26,0.16.64,0.37,1,.61,1.23,0.83,1.14,2.05,0,3-1.4,1.2-3,1.14-4.64,1-0.89-.05-1.78-0.21-2.63-0.31-0.1,1.73-.23,3.46-0.28,5.2-0.08,2.64-.1,5.29-0.17,7.93,0,2.07-.14,4.13-0.17,6.19,0,1.74,0,3.48.05,5.21a1,1,0,0,1-.94,1.23,5.83,5.83,0,0,1-3.49-.13c-0.56-.26-0.45-0.55-0.38-1,0.51-2.83,1.12-5.65,1.46-8.5s0.44-5.81.59-8.72c0.12-2.34.17-4.69,0.22-7a1.32,1.32,0,0,0-1.05-1.54c-1.38-.39-1.88-1.14-2.53-3.15-0.84.39-1.66,0.84-2.52,1.15a9.43,9.43,0,0,1-2.72.74,2.27,2.27,0,0,1-2.21-3c0.48-2,2-2.63,4-2.81v-1a14.56,14.56,0,0,1-2.35-.51,4.13,4.13,0,0,1-1.5-1.1,1,1,0,0,0-1-.37,15.62,15.62,0,0,1-3.17,0,1.41,1.41,0,0,1-1.38-1.18,2.52,2.52,0,0,1,.76-2.26,3,3,0,0,1,3.58-.82,0.79,0.79,0,0,0,.65,0c1.3-.93,2.65-0.63,4-0.22l0.44,0.14a0.41,0.41,0,0,0,.12,0,1.31,1.31,0,0,1,.08-0.43,1.23,1.23,0,0,0-.37-1.71c-0.83-.77-0.63-2.59.37-3.58a9.61,9.61,0,0,1,1.63-1.11,18.29,18.29,0,0,1,0-3.35,4.14,4.14,0,0,1,4.09-3.24c0.89,0,1-.75,1.49-1.17,2-1.79,4.84-2.2,6.84-.16a10.14,10.14,0,0,1,1,1.75,1.25,1.25,0,0,0,.71.5c0.47,0.11,1,.07,1.46.13a4,4,0,0,1,3,3.5A1.19,1.19,0,0,1,349.89,248.7Z" transform="translate(-215.95 -225.91)"/><path class="cls-2" d="M249,261.71c-1.86,2.31-2.78,2.72-5.33,2.2,0,0.58,0,1.16,0,1.73-0.07,3-.22,6-0.21,9,0,4.67.07,9.34,0.25,14,0.07,1.95.51,3.88,0.77,5.83a17.34,17.34,0,0,1,.24,2.34,1.07,1.07,0,0,1-.58.82c-2.33.51-4.63,1-7-.27a1.79,1.79,0,0,1-1.1-2.1c0.24-1.45.63-2.87,0.85-4.31,0.33-2.13.63-4.28,0.83-6.43,0.26-2.65.5-5.31,0.58-8,0.11-3.33.05-6.67,0.07-10,0-.37,0-0.74.06-1-1.33.05-2.58,0.11-3.83,0.14a0.85,0.85,0,0,1-.58-0.22c-1.14-1.23-2.39-.7-3.65-0.3a6,6,0,0,1-5-.51,2,2,0,0,1-1-1.93,4.9,4.9,0,0,1,2.38-4.4,2.48,2.48,0,0,1,1.77-.28c1.11,0.3,2.14.87,3.22,1.27a1.31,1.31,0,0,0,1,.05,3.73,3.73,0,0,1,4.4-.46,0.83,0.83,0,0,0,.32,0l0.3-5.36a29.94,29.94,0,0,1-4,.65c-2.06.07-4.19,0-5-2.64-0.52.27-.94,0.45-1.32,0.68-1.87,1.16-3.62.57-5.33-.38a3.49,3.49,0,0,0-2.21-.69c-2.31.24-4-1.61-3.94-4.19a3.71,3.71,0,0,1,4.05-3.48,5.3,5.3,0,0,1,1.54.62,14.15,14.15,0,0,1,1.33.9,5.75,5.75,0,0,1,1.63-.93,5.34,5.34,0,0,1,2.45.06c1.33,0.41,1.3.51,2.3-.79-0.62-.27-1.22-0.54-1.82-0.79-1.38-.57-2.65-1.26-2.82-2.94a3,3,0,0,1,.24-1.58,6,6,0,0,1,4.38-2.84c0.36-1.55.51-3.21,2-4.33a4.08,4.08,0,0,1,4.45-.74,28.44,28.44,0,0,1,2.51-3.29c1.41-1.39,3-1.26,4.46.12,0.23,0.21.43,0.45,0.69,0.72a4.73,4.73,0,0,1,5.15-.12c2,1.14,1.8,2.94,1.08,4.8,1.5,0.1,2.84.23,3.63,1.6,1.18,2-.15,3.35-1.55,4.84,2-.67,2.38.9,3,1.59a39.06,39.06,0,0,1,4.12.52,3.61,3.61,0,0,1,2.26,5.66,3,3,0,0,0,.66.27c2.64,0.37,3.16,3,2.55,4.83a5.74,5.74,0,0,1-3.56,4,1.15,1.15,0,0,0-.78,1.21,3.76,3.76,0,0,1-3,3.81,0.65,0.65,0,0,1-.3.08c-1.55-.7-2.82.19-4.22,0.63A15.29,15.29,0,0,1,249,261.71Z" transform="translate(-215.95 -225.91)"/></svg>